<svg version="1.1" id="Layer_1" xmlns="http://www.w3.org/2000/svg" xmlns:xlink="http://www.w3.org/1999/xlink" x="0px" y="0px"
	 width="100%" viewBox="0 0 752 1024" enable-background="new 0 0 752 1024" xml:space="preserve">
<path fill="#000000" opacity="1.000000" stroke="none" 
	d="
M179.389496,649.502930 
	C183.062607,623.003723 187.670242,597.156677 195.607269,571.989929 
	C201.375916,553.698669 212.574402,539.803040 228.750793,529.657715 
	C241.789291,521.480469 255.799194,515.283447 269.752014,508.945129 
	C280.034485,504.274078 290.001190,499.039368 299.901825,492.264008 
	C290.602356,490.229095 281.961670,488.665710 274.126923,484.194885 
	C258.572693,475.319061 250.096802,461.004150 243.836655,445.124664 
	C238.146378,430.690735 238.675995,415.866760 242.216003,400.908783 
	C244.483383,391.328186 248.586258,382.338318 250.658493,372.726227 
	C252.773224,362.917023 253.213730,352.892212 253.562988,342.955444 
	C255.245880,295.075928 277.665558,259.793274 318.151947,235.357590 
	C335.148651,225.099197 353.636383,218.994064 373.551666,219.026993 
	C389.536865,219.053406 404.763092,222.393982 415.790863,235.658951 
	C416.745728,236.807541 417.745605,237.274506 419.264435,236.660248 
	C433.688232,230.826981 445.609711,236.750717 456.820923,245.025589 
	C473.091278,257.034515 478.680939,274.539795 481.335175,293.546051 
	C482.437958,301.442871 484.194000,309.246429 485.427765,317.127686 
	C486.111725,321.496704 488.403656,323.796539 492.679047,324.748291 
	C496.854218,325.677704 498.701263,327.792480 500.262512,332.415466 
	C495.935822,333.842102 494.643036,327.826233 490.605194,328.562836 
	C489.250946,330.413757 490.788849,331.961700 491.389648,333.507660 
	C495.020294,342.849976 500.145752,351.466034 504.616119,360.401215 
	C512.428162,376.015594 516.233826,392.256317 512.210754,409.671143 
	C511.470245,412.876587 510.817078,416.228119 507.750275,418.339447 
	C507.138824,418.760406 506.631805,419.653503 506.500031,420.403259 
	C504.177307,433.618134 498.098114,444.802063 486.865570,454.862915 
	C495.140747,454.914612 501.837372,455.609894 508.482361,456.735596 
	C514.252197,457.713043 519.893005,458.958435 525.143494,461.728302 
	C529.437256,463.993500 531.249268,467.297180 531.382080,472.182007 
	C531.835510,488.859528 529.811523,505.075500 523.475891,520.623108 
	C523.049072,521.670471 522.884766,522.824768 522.590881,523.958252 
	C528.163696,527.625732 533.558228,531.203552 538.980774,534.738525 
	C549.549255,541.628113 556.521423,551.340454 561.395569,562.808533 
	C572.013306,587.789978 577.418091,614.231018 583.355225,640.527344 
	C585.114807,648.320801 586.882690,656.112488 588.586792,663.918152 
	C588.939636,665.534424 589.128052,667.204102 589.205627,668.857910 
	C589.275574,670.348328 589.301941,672.097046 587.270325,672.339417 
	C585.226868,672.583191 584.961426,670.925720 584.618713,669.417358 
	C582.333069,659.357605 580.044861,649.298340 577.719604,639.247620 
	C572.505615,616.710388 567.310913,594.198975 559.634766,572.289551 
	C553.085449,553.596252 541.025269,540.318298 523.688904,531.338623 
	C520.721741,529.801819 518.545532,529.340088 517.024231,533.073120 
	C511.079865,547.659790 499.453522,553.348328 484.504913,552.883179 
	C478.641388,552.700745 476.843292,555.458008 475.533508,560.397705 
	C469.770081,582.133728 456.033722,595.130310 433.304871,597.703491 
	C425.893951,598.542419 418.738983,596.748901 411.747437,594.514832 
	C408.146515,593.364258 405.363434,593.177979 403.760712,597.452087 
	C403.208344,598.925171 401.987305,600.484619 400.642578,601.268494 
	C392.077667,606.261169 386.129028,614.506104 377.627380,619.554688 
	C372.068817,622.855469 369.801270,628.557617 367.739777,634.170532 
	C364.699280,642.449219 362.202301,650.926208 359.268250,659.246155 
	C358.342407,661.871521 359.384430,663.590942 360.675262,665.638550 
	C364.818054,672.210327 362.666199,686.651611 356.953552,691.650818 
	C356.269409,692.249512 355.490326,692.377441 354.101685,691.808899 
	C352.268890,686.234741 357.866425,681.568726 357.071106,676.231628 
	C326.098175,671.042114 305.096375,652.234985 287.778809,627.445740 
	C284.841003,631.290039 282.883606,636.049988 280.547302,640.558716 
	C275.488922,650.320435 270.604004,660.171936 265.626526,669.975769 
	C265.024902,671.160828 264.343353,672.313965 263.603180,673.417664 
	C262.754150,674.683716 261.703827,676.102539 259.991882,675.307007 
	C257.956512,674.361145 258.524017,672.376709 259.217773,670.945923 
	C261.978210,665.252991 264.945862,659.660828 267.809906,654.017761 
	C272.484619,644.807190 277.132111,635.582764 281.804260,626.370911 
	C283.428558,623.168335 285.435150,620.402466 289.242645,619.502686 
	C291.409454,618.990601 292.377411,617.161438 293.231842,615.314636 
	C299.447571,601.879395 306.537628,588.832275 310.295441,574.341614 
	C312.314270,566.556763 316.298126,559.549194 320.401733,552.665649 
	C321.254578,551.235046 322.228210,549.876526 323.082977,548.447021 
	C331.145416,534.963013 331.151184,534.953796 322.136169,522.329346 
	C316.062805,513.824280 311.815430,504.544281 310.344421,493.749573 
	C305.863220,495.319000 302.129639,497.450195 298.535706,499.773224 
	C280.109985,511.683350 259.178375,518.575500 240.049179,529.072388 
	C232.721771,533.093140 225.781937,537.631165 219.533493,543.226257 
	C206.195343,555.169739 200.676788,571.217407 196.411591,587.776428 
	C190.139038,612.128662 186.424622,636.989685 182.554581,661.806335 
	C182.171494,664.262878 182.324020,666.798340 182.074356,669.281799 
	C181.892151,671.094055 181.675079,673.379761 179.312210,673.364624 
	C176.814758,673.348633 176.862930,671.020508 176.848465,669.205994 
	C176.796371,662.676880 178.226227,656.325195 179.389496,649.502930 
M423.005341,525.982605 
	C423.005341,525.982605 422.791504,525.779358 422.236542,525.385986 
	C419.514374,523.490479 416.450500,523.066895 413.207916,523.062378 
	C407.508606,523.054382 401.965149,524.332336 396.339722,524.866150 
	C389.445923,525.520386 382.472992,527.225525 375.642212,524.398376 
	C374.397278,523.883179 372.979126,523.307007 373.357239,521.623047 
	C373.641907,520.355469 374.884888,519.689331 376.085358,519.920898 
	C382.746185,521.205933 388.200897,517.819092 393.235535,514.661865 
	C401.704742,509.350647 410.032410,509.251770 418.869110,512.883606 
	C419.484894,513.136719 420.123230,513.335938 420.734619,513.598450 
	C423.699707,514.871582 425.243835,513.533142 425.642639,510.697784 
	C426.299103,506.030853 425.747070,501.636932 421.624420,498.550262 
	C412.191986,491.488068 402.263123,488.186951 390.386017,492.651306 
	C377.098724,497.645752 364.727844,504.599426 351.592834,509.856873 
	C345.229095,512.403992 341.218567,516.830322 339.294586,523.336853 
	C335.490967,536.199829 329.769989,548.179138 322.622681,559.513123 
	C319.591339,564.320190 317.194672,569.487305 315.543213,574.912231 
	C310.673950,590.907593 304.117371,606.190552 296.151306,620.851135 
	C293.903198,624.988464 294.296387,628.221619 297.044983,631.798340 
	C305.569611,642.891418 315.943787,651.911316 327.577881,659.557312 
	C334.435303,664.064026 341.843506,667.269531 350.234741,669.122070 
	C355.313782,654.261780 360.323914,639.603027 365.475464,624.530579 
	C363.790924,624.449951 362.809387,624.465027 361.845062,624.343628 
	C360.023102,624.114075 357.124634,625.315063 356.909790,622.531555 
	C356.708069,619.917725 359.597748,620.023376 361.481201,619.879150 
	C366.270050,619.512329 370.407532,617.628174 374.528961,615.283997 
	C383.168640,610.369873 388.991486,601.987061 397.514313,596.951233 
	C398.415070,596.419006 399.306915,595.164551 399.429840,594.151367 
	C399.853180,590.663086 402.379730,589.193665 404.911438,587.509583 
	C407.676361,585.670349 410.405640,583.728394 412.902740,581.547485 
	C416.387238,578.504211 418.712708,574.814148 417.925964,569.235840 
	C411.537994,570.221436 405.303070,570.927002 399.037170,570.441711 
	C397.119995,570.293213 394.397491,570.622070 394.462341,567.849182 
	C394.531311,564.898254 397.349060,565.646423 399.157013,565.719666 
	C405.726196,565.985840 412.113556,565.017151 418.363922,563.138367 
	C423.087250,561.718445 424.187683,558.098816 423.583862,553.663818 
	C422.985809,549.270935 420.187073,547.889954 416.112549,548.292664 
	C414.128357,548.488770 412.144043,548.722168 410.154053,548.813599 
	C403.863647,549.102844 397.602722,550.351379 391.277924,549.492920 
	C389.309448,549.225769 386.825195,549.013428 387.225250,546.243408 
	C387.552673,543.976379 389.850311,544.080261 391.683014,544.007263 
	C396.838409,543.801819 401.998993,543.694763 407.149567,543.406860 
	C414.513977,542.995300 422.090790,541.084717 428.167419,547.279785 
	C432.911652,539.884216 430.768219,531.420166 423.005341,525.982605 
M371.817230,494.701050 
	C375.439056,493.094299 379.060852,491.487518 382.797241,489.829956 
	C381.040558,486.280273 376.407440,485.107819 376.225891,480.349213 
	C380.190643,480.296753 382.028229,483.204498 384.250671,485.155762 
	C386.914978,487.495056 389.075378,487.512512 391.551758,485.003082 
	C395.293915,481.210968 398.979980,477.325897 403.039337,473.893646 
	C408.350952,469.402588 413.950714,470.258148 418.153351,475.774994 
	C418.856476,476.697998 419.459991,477.709930 420.008331,478.734924 
	C420.959961,480.513916 422.499146,480.899750 424.250610,480.465393 
	C425.914856,480.052643 426.009460,478.535034 425.879913,477.218170 
	C425.039886,468.680817 430.419006,464.976166 437.273590,462.382874 
	C446.693604,458.819061 456.522217,456.978424 466.483002,456.063904 
	C470.432312,455.701324 472.519470,454.211823 473.554932,450.483154 
	C478.754944,431.758118 481.733612,412.750458 480.547760,393.279785 
	C480.273071,388.770050 479.434479,384.163940 477.127960,380.228210 
	C464.283081,386.307983 451.707489,390.637177 437.190979,382.538177 
	C439.003021,385.231293 439.793915,387.250702 441.258362,388.442169 
	C449.020233,394.757111 454.155365,403.097290 459.405334,411.360504 
	C461.131592,414.077606 463.278992,416.264343 465.914185,418.150421 
	C467.730438,419.450439 471.890381,419.574615 470.666962,422.744629 
	C469.398651,426.030945 466.308807,422.373199 463.708191,423.053864 
	C460.070862,432.887970 462.670715,443.016602 464.467529,453.391174 
	C461.626678,452.780640 461.244873,451.631927 460.825165,450.559357 
	C457.976135,443.279419 456.081451,435.624786 458.535522,428.097931 
	C462.301239,416.548157 452.470734,411.549744 448.510071,402.277100 
	C446.911682,405.370850 446.072418,406.959778 445.264557,408.564545 
	C439.101837,420.806366 430.840729,423.436310 418.630096,417.043884 
	C416.423462,415.888672 414.300018,414.321014 411.720856,414.333069 
	C405.765930,414.360931 400.168152,413.684235 396.802277,407.849915 
	C394.434875,409.987366 393.638428,412.418396 392.362274,414.541779 
	C388.341644,421.231781 385.433716,428.713745 379.478577,434.047607 
	C376.469727,436.742493 376.215607,439.366608 377.592529,442.885010 
	C380.400787,450.060974 382.192657,457.500153 382.105469,465.272308 
	C382.086426,466.969391 382.819824,469.027740 379.922638,470.474060 
	C377.853851,465.626160 378.473083,460.371826 377.162872,455.576660 
	C375.780762,450.518524 374.852875,445.290649 372.260040,440.419403 
	C371.095184,440.818146 370.316437,441.055542 369.559998,441.350128 
	C368.221008,441.871552 366.875488,442.153870 366.147339,440.540955 
	C365.424561,438.939880 366.570557,438.009247 367.764191,437.353882 
	C377.507751,432.004242 382.542145,422.766205 387.627808,413.529938 
	C390.842896,407.690948 394.181763,401.919312 399.212402,397.356689 
	C401.922974,394.898254 404.730133,393.806946 408.074097,396.067413 
	C407.769897,397.572845 406.461334,397.134308 405.695587,397.612823 
	C402.994110,399.301025 400.875519,401.487152 401.510437,404.906586 
	C402.173340,408.476685 405.170929,408.917664 408.122620,408.804382 
	C413.737946,408.588837 418.408997,411.058868 423.151978,413.578217 
	C429.511200,416.956116 434.140289,415.815094 438.226776,409.913727 
	C439.732697,407.738983 440.751190,405.233246 442.111542,402.949677 
	C444.665192,398.662811 443.292816,395.311798 439.680328,392.546783 
	C437.226044,390.668213 435.421112,388.337585 434.238098,385.521118 
	C431.465729,378.920532 428.710785,372.312378 426.003876,365.684814 
	C425.508881,364.472839 425.436707,363.137695 423.955017,362.486938 
	C418.790131,360.218719 411.576263,364.524170 411.165283,370.181885 
	C410.060669,385.389008 404.168060,393.135406 389.498413,396.937042 
	C375.431000,400.582581 361.359100,402.512634 350.709808,388.871857 
	C350.557648,388.676941 350.093506,388.725586 349.764435,388.663788 
	C344.170044,391.743164 341.696716,397.993164 336.624084,401.715881 
	C336.634644,393.461548 343.834564,389.825684 348.428345,383.872437 
	C342.470093,383.794159 337.497437,388.184387 331.149017,384.735474 
	C335.271454,381.858978 339.494324,382.439270 343.037720,381.022888 
	C344.561371,380.413818 347.165985,380.914520 346.920380,378.138855 
	C346.681976,375.444885 344.521545,375.280579 342.427643,375.357330 
	C335.940216,375.594971 329.455719,376.004425 322.967010,376.079193 
	C319.469177,376.119537 318.446228,377.668945 318.314117,380.964081 
	C318.022705,388.233307 316.518524,395.378723 311.760010,401.050629 
	C306.383911,407.458710 304.167755,413.775482 309.020386,421.426880 
	C309.933228,422.866211 310.553894,425.033661 308.730469,426.473785 
	C307.000275,427.840240 304.842712,427.758362 303.088135,426.627167 
	C299.182007,424.108856 294.949097,421.989990 291.852386,418.376190 
	C290.823090,417.175079 289.071899,415.916229 290.724731,414.142120 
	C292.462738,412.276611 294.005127,413.383698 295.320129,414.932159 
	C297.215149,417.163574 299.368561,418.978058 303.132446,420.231873 
	C299.654877,411.925903 302.127075,405.735321 306.844879,399.960510 
	C311.449036,394.324799 313.438019,387.687134 314.138916,380.069244 
	C310.744049,384.673309 307.775452,388.875244 304.619202,392.931122 
	C301.347137,397.135956 297.712067,401.066803 294.570770,405.362488 
	C291.545898,409.498962 288.238373,413.704041 289.312958,419.420715 
	C291.001648,428.404236 294.314423,436.683167 300.372040,443.654175 
	C305.798553,449.898926 312.344025,448.800140 314.147491,441.848236 
	C314.467529,440.614532 314.975037,439.093567 316.684174,439.222961 
	C318.205170,439.338074 318.801361,440.667816 319.332916,441.920471 
	C324.773468,454.741760 332.116211,466.407471 340.769409,477.283630 
	C341.668304,478.413452 342.873627,479.595734 340.923676,481.927979 
	C333.706879,477.527802 329.804230,470.023956 324.077087,462.889618 
	C325.055389,467.932251 324.353424,471.900940 324.303009,475.876373 
	C324.230652,481.581818 322.949890,486.809357 317.856110,490.296539 
	C316.463623,491.249817 316.043091,492.632111 316.149963,494.215973 
	C317.013977,507.020844 324.243164,516.555847 331.905579,526.243774 
	C332.520477,525.388123 332.764130,525.142578 332.895935,524.847229 
	C333.234467,524.088318 333.624481,523.331543 333.816742,522.531311 
	C335.950256,513.651062 341.749603,508.189087 349.988495,504.866516 
	C357.092682,502.001556 364.136841,498.986145 370.976654,495.033508 
	C370.976654,495.033508 371.139191,494.871704 371.817230,494.701050 
M417.515808,269.225037 
	C421.923553,257.569092 420.324066,247.163834 411.379700,238.069183 
	C398.428955,224.900848 381.930450,222.260406 365.092651,224.724319 
	C321.844482,231.052948 290.466736,254.834137 270.167389,293.280212 
	C261.498596,309.698547 259.459167,327.785248 258.330597,345.983856 
	C257.968811,351.817322 257.756226,357.660065 257.431244,364.416962 
	C265.221649,354.914642 272.326569,346.324646 279.345825,337.665253 
	C286.243652,329.155640 289.344971,318.419006 295.189728,309.246338 
	C296.453400,313.530579 294.830994,317.038055 293.533936,320.570068 
	C288.974670,332.985474 281.444885,343.596069 272.529633,353.122192 
	C255.521561,371.295471 246.599518,393.076263 244.665024,417.426758 
	C243.096588,437.169556 251.436798,454.078796 263.816040,469.052612 
	C270.732880,477.419128 279.710571,482.335480 290.419098,484.825287 
	C290.312653,484.158813 290.346802,483.925751 290.251923,483.845825 
	C288.852631,482.667114 287.381317,481.568756 286.032196,480.336334 
	C271.209717,466.796204 264.575562,450.228058 267.596771,430.138947 
	C267.901245,428.114410 268.028076,425.822540 270.727631,425.197968 
	C271.882721,428.110626 271.897583,428.112701 271.629913,430.026276 
	C269.445190,445.645172 273.659393,459.454681 283.854218,471.320892 
	C291.196106,479.866425 300.217590,485.388916 312.046448,485.059387 
	C315.725586,484.956940 318.066376,483.592407 318.860901,479.866150 
	C321.032684,469.680847 319.105713,459.946625 316.245361,450.097015 
	C307.616760,454.358826 302.667023,453.600677 296.444916,447.324066 
	C293.219421,444.070251 291.197540,440.052917 289.459351,435.877075 
	C288.947479,434.647491 288.519379,433.376923 287.922729,432.190582 
	C287.413483,431.177948 287.484985,429.782440 285.921112,429.153473 
	C285.229675,448.958679 293.049866,463.872559 311.182098,472.832184 
	C308.195587,476.068085 306.121490,474.357208 304.144135,473.381592 
	C287.796539,465.315735 277.986633,444.560760 281.136169,425.208130 
	C282.788330,415.056366 287.033112,406.245331 293.612091,398.388763 
	C301.096252,389.451324 308.743500,380.593018 313.907440,369.998474 
	C317.545837,362.533844 319.955841,354.713318 320.753845,345.876892 
	C314.727997,347.621979 308.536346,347.135010 305.810150,353.882812 
	C305.003021,355.880554 302.854797,357.477142 301.041809,358.902161 
	C294.889526,363.737762 288.621643,368.426727 282.380798,373.149048 
	C269.258392,383.078369 261.204376,395.976532 259.245300,412.475128 
	C259.061493,414.023132 259.362030,415.966553 256.588684,416.245483 
	C254.888535,413.361145 255.659668,410.224884 256.039154,407.238098 
	C258.078064,391.190521 266.804657,379.230316 279.319946,369.648468 
	C286.458435,364.183167 294.076935,359.333008 300.604706,353.087128 
	C302.153809,351.604889 304.453705,350.186249 304.282776,347.975189 
	C304.004425,344.375214 306.464417,344.185608 308.631897,343.814484 
	C329.021484,340.323242 339.821625,327.498810 343.892975,307.966339 
	C345.051086,302.410156 346.724304,296.999451 349.359161,291.932587 
	C357.186401,276.880554 372.999481,270.850983 388.764618,276.929321 
	C390.716553,277.681915 392.941772,278.302185 392.489471,281.238495 
	C390.094971,282.526550 388.124451,281.149933 386.137939,280.641266 
	C370.588257,276.659973 357.511108,283.488373 352.066895,298.744324 
	C350.168182,304.064880 348.806915,309.576935 347.191345,314.998901 
	C344.481934,324.092194 340.726990,332.730560 332.785675,338.391754 
	C327.811432,341.937775 324.841614,345.843231 324.538788,352.120483 
	C324.253784,358.028442 321.742493,363.580139 319.711609,370.006836 
	C328.209351,369.247833 335.794373,368.568634 343.379822,367.894501 
	C344.669800,367.779846 345.554474,367.109894 346.042664,365.936584 
	C349.553345,357.499084 357.210999,355.023407 365.009399,352.855865 
	C372.323120,350.823029 379.885620,350.508606 387.470367,350.006134 
	C381.303009,347.225647 375.066956,345.574249 368.219269,346.154297 
	C361.269379,346.742981 356.302765,351.522614 350.181824,354.828430 
	C349.923035,351.054901 352.024872,349.701813 353.790833,348.331177 
	C361.500763,342.347260 370.224579,339.589569 379.979370,340.917664 
	C384.466156,341.528503 390.066559,342.346344 391.874207,346.281494 
	C394.029694,350.973877 398.334167,350.626129 401.110840,353.003021 
	C407.809143,358.737030 414.834778,358.625793 422.731964,357.067963 
	C425.314178,356.558594 426.648590,356.148590 427.893250,353.715302 
	C430.499359,348.620422 432.332336,342.985931 435.322601,338.329071 
	C440.912720,329.623413 453.040466,327.469818 463.118500,332.690430 
	C463.335907,335.049316 462.107483,335.766846 460.081665,335.081299 
	C449.478210,331.493042 443.714355,338.663086 437.525177,344.970184 
	C444.493347,342.220398 451.668182,340.461273 459.055695,339.437256 
	C465.634338,338.525330 465.753357,338.202515 462.872345,331.222443 
	C461.275421,325.619781 459.843658,319.963654 458.050903,314.424377 
	C452.455627,297.135864 443.454773,282.318115 427.286133,272.812897 
	C426.034332,272.076996 424.251587,271.187439 425.163513,269.424622 
	C426.228058,267.366821 428.143585,268.509857 429.550140,269.179871 
	C431.796936,270.250122 433.960999,271.525757 436.057831,272.873596 
	C444.113647,278.051880 449.880524,285.334564 454.462646,293.572021 
	C461.485229,306.196686 465.419556,319.994385 469.087280,333.842529 
	C470.028656,337.396912 471.279663,339.747711 475.218689,340.554626 
	C481.180756,341.775970 484.213318,346.077057 484.955902,351.857544 
	C485.791138,358.358795 485.658051,364.839996 482.829620,370.977783 
	C481.999969,372.778168 481.117645,374.444885 481.893951,376.656708 
	C488.256836,394.786163 486.301392,413.086243 482.800873,431.393188 
	C481.385559,438.795013 479.896576,446.182739 478.438385,453.590637 
	C480.059814,453.844788 480.784637,453.033722 481.529846,452.435425 
	C491.499878,444.431396 498.031189,434.273926 500.716248,421.707916 
	C502.370789,413.964905 502.084717,406.147644 501.812286,398.314148 
	C501.739990,396.235657 500.971100,393.650696 504.358337,392.303741 
	C506.611969,397.413818 507.297089,402.506256 507.469482,407.727264 
	C508.196075,400.926605 509.338257,394.199249 508.187988,387.339233 
	C506.001282,374.298187 500.742340,362.440186 493.971588,351.291595 
	C487.214111,340.164917 485.385986,326.354950 475.168640,317.120941 
	C473.735199,315.825439 472.681915,313.952576 471.867096,312.158722 
	C469.458710,306.856628 467.070221,301.530884 465.018341,296.084656 
	C461.573883,286.942230 455.392395,280.681122 446.320587,277.145569 
	C444.752533,276.534515 442.580231,276.271027 442.834961,273.631714 
	C445.017365,272.015381 447.084717,273.413788 448.968933,274.057404 
	C458.769257,277.404968 465.027588,284.432861 468.860962,293.836609 
	C470.935272,298.925171 472.948608,304.038879 475.059021,309.112305 
	C476.022705,311.428955 477.251282,313.601105 479.973175,315.946228 
	C477.204437,302.191895 476.371552,289.182800 472.567810,276.696991 
	C466.947784,258.248932 454.960968,246.060745 436.660767,240.196579 
	C431.522247,238.549988 426.214447,238.629456 421.044006,240.692795 
	C420.627930,243.689606 421.636414,246.071655 422.757996,248.528412 
	C426.240814,256.157318 425.932129,263.714569 421.845886,271.064911 
	C421.201691,272.223633 420.470703,273.515503 418.871948,273.364136 
	C417.164734,273.202484 416.864899,271.874023 416.993622,270.122833 
	C416.993622,270.122833 417.167603,269.828339 417.515808,269.225037 
M485.200562,547.697388 
	C488.492645,547.256714 491.822266,546.998291 495.067719,546.330872 
	C499.504059,545.418518 503.755829,544.068420 506.526489,539.969788 
	C515.276855,527.025391 522.240051,513.348267 524.617432,497.667633 
	C525.683289,490.636871 526.257446,483.623596 525.778442,476.515717 
	C494.646057,487.426697 463.683441,488.098846 432.386292,480.174072 
	C432.045319,487.328156 431.619659,487.715546 424.414917,486.039856 
	C420.899841,485.222321 417.682404,485.238251 414.682526,487.562134 
	C415.871185,490.288391 417.802307,489.149811 419.498840,489.011597 
	C426.196014,488.465942 432.374146,492.066772 434.480774,498.207367 
	C437.285065,506.381683 439.565430,514.728210 443.181000,522.625671 
	C444.662323,525.861328 443.040619,527.458313 439.689636,527.074646 
	C436.969940,526.763306 434.290863,526.097412 430.522278,525.386597 
	C434.284241,529.133850 438.313995,529.862854 441.953705,531.231018 
	C446.554962,532.960693 451.252563,534.808044 453.793304,539.103516 
	C457.985535,546.191162 464.675018,547.254089 471.776703,547.644470 
	C475.926331,547.872620 480.097687,547.705017 485.200562,547.697388 
M423.311401,569.878418 
	C424.068573,578.434631 418.487427,583.750244 412.340546,588.972900 
	C440.813080,598.140869 465.256836,584.753845 471.063629,557.934265 
	C471.912445,554.013794 470.664398,552.621277 467.137817,552.440186 
	C459.426025,552.044006 453.633759,548.609741 449.267578,542.180847 
	C446.250946,537.739075 441.547943,535.941467 436.006439,535.313171 
	C436.116699,542.411865 435.678528,548.690430 429.791321,552.945557 
	C428.549530,553.843018 428.723328,555.277954 428.720032,556.618286 
	C428.714172,559.007385 427.960754,561.154480 426.789520,563.244995 
	C425.682678,565.220581 423.042603,566.276184 423.311401,569.878418 
M363.951538,371.442932 
	C372.140381,364.293640 381.097137,361.285583 391.488739,366.473206 
	C393.332123,367.393463 396.224579,368.136383 395.371704,370.815704 
	C394.579041,373.305908 391.933838,372.124298 390.092010,371.770355 
	C381.898621,370.195740 374.130524,371.396057 366.908539,375.458557 
	C362.745575,377.800323 358.833252,380.583282 353.590393,380.683838 
	C355.647339,388.490631 360.279022,392.776459 367.641632,393.588348 
	C375.481689,394.452850 383.264221,393.897827 390.800140,391.180908 
	C401.070770,387.477997 405.396057,381.587250 405.698792,370.647400 
	C405.955261,361.379150 403.254639,358.079651 394.155304,356.316589 
	C382.684052,354.093903 371.637268,356.013000 360.778809,359.672852 
	C358.090332,360.579041 355.571838,361.970612 353.440521,363.864929 
	C351.027191,366.009827 349.981415,373.728180 352.165466,375.430573 
	C355.410461,377.959900 358.362091,375.693970 361.115875,373.852356 
	C361.940552,373.300812 362.640625,372.562958 363.951538,371.442932 
M435.487244,353.053101 
	C429.291412,359.787537 434.729248,377.369385 444.445618,380.323059 
	C454.288879,383.315247 463.864380,381.623169 472.651215,376.056366 
	C475.133240,374.483978 476.003387,372.606628 474.599640,369.788971 
	C471.079681,362.723541 469.042633,355.173370 467.698547,347.434540 
	C467.308289,345.187500 466.152496,344.158813 463.971863,344.394806 
	C454.182037,345.454437 444.392090,346.546021 435.487244,353.053101 
M499.152100,467.103943 
	C505.959625,467.757446 512.721802,468.693542 519.206604,470.966980 
	C521.585754,471.801117 523.276978,471.001404 524.110840,468.938446 
	C525.022217,466.683746 522.843689,466.136414 521.414612,465.544312 
	C519.271240,464.656342 517.044250,463.900360 514.786804,463.368744 
	C497.540405,459.307434 480.143433,459.630524 462.711578,461.816437 
	C453.611816,462.957550 444.597565,464.572784 436.247162,468.610809 
	C434.588287,469.412994 431.969177,470.270996 433.046051,472.806610 
	C434.048340,475.166504 436.546265,475.188873 438.710205,474.331177 
	C457.917297,466.718201 477.986847,466.256195 499.152100,467.103943 
M478.317017,348.513519 
	C476.858246,346.961639 475.309509,345.615601 472.666809,345.906189 
	C473.480865,352.888519 475.476410,359.172729 478.876434,366.183594 
	C480.116394,359.774933 480.677063,354.471497 478.317017,348.513519 
M410.498260,483.107422 
	C411.726105,482.324188 413.336029,482.071106 414.119873,480.459442 
	C413.585144,477.981903 412.124298,475.887390 409.478638,476.420258 
	C404.946777,477.333038 402.840607,481.142395 400.566711,484.871948 
	C404.335785,486.428162 407.182770,485.375061 410.498260,483.107422 
M431.581268,508.904205 
	C430.638428,511.859894 429.695618,514.815613 428.624878,518.172241 
	C431.073212,518.844604 432.923615,520.369568 435.562408,519.624390 
	C434.973267,515.755066 433.451111,512.449097 431.581268,508.904205 
M403.791779,516.123291 
	C400.442230,516.054993 398.107086,518.394226 395.266815,519.590942 
	C398.056732,519.450684 400.771179,519.081726 403.481720,518.685852 
	C405.144043,518.443054 405.469025,517.683167 403.791779,516.123291 
z"/>
<path fill="#000000" opacity="1.000000" stroke="none" 
	d="
M142.626663,766.706543 
	C142.431015,752.743164 142.150452,739.253784 142.061646,725.763062 
	C142.032135,721.276917 142.524597,716.788757 142.720490,712.299072 
	C142.828995,709.812439 143.921753,708.174927 146.429733,707.702881 
	C148.964111,707.225952 150.584152,708.511169 151.612701,710.666138 
	C155.073212,717.916504 157.131775,725.651794 159.248489,733.350037 
	C161.057144,739.927856 162.592117,746.581299 164.217865,753.208679 
	C164.611404,754.813049 164.812469,756.482605 166.623169,757.783386 
	C168.475159,754.873901 168.873840,751.593323 169.680084,748.471375 
	C172.802155,736.382324 175.621094,724.225830 177.322998,711.843689 
	C177.809433,708.304626 179.083450,705.611145 183.145737,705.844360 
	C187.435486,706.090637 187.180664,709.376892 187.263489,712.469910 
	C187.927597,737.274963 188.649933,762.078491 189.324951,786.883240 
	C189.388153,789.205383 189.527496,791.557312 188.718674,793.814941 
	C187.750732,796.516724 186.336975,798.641174 182.983353,798.254150 
	C179.610245,797.864868 179.224991,795.242981 179.187012,792.719971 
	C179.041534,783.055786 179.048904,773.389221 179.013016,763.723511 
	C178.995987,759.139648 179.010086,754.555664 178.482132,749.937378 
	C174.897049,756.906738 173.973572,764.485474 172.287430,771.857849 
	C171.769058,774.124329 171.177399,776.375854 170.553009,778.615723 
	C169.857193,781.111755 168.949646,783.528137 165.731491,783.438354 
	C162.396957,783.345398 161.224579,780.996521 160.737350,778.171753 
	C159.690430,772.102112 158.776123,766.009094 157.687500,759.947205 
	C156.511047,753.396240 154.972702,746.937927 151.067932,740.862549 
	C151.067932,743.362671 151.048279,745.862976 151.071213,748.362915 
	C151.196533,762.027588 151.343384,775.692139 151.448807,789.356934 
	C151.460297,790.845703 151.517456,792.416199 151.094360,793.809448 
	C150.159805,796.886841 147.203995,797.605957 144.829346,795.411865 
	C142.584000,793.337402 142.073029,790.539978 141.990219,787.646851 
	C141.794601,780.813171 141.842163,773.984863 142.626663,766.706543 
z"/>
<path fill="#000000" opacity="1.000000" stroke="none" 
	d="
M433.248199,722.831177 
	C437.628815,728.813354 439.409363,735.342346 440.002136,742.220703 
	C441.087708,754.817566 441.671661,767.414856 439.308929,779.959595 
	C438.433136,784.609497 436.792084,788.929260 433.928833,792.698547 
	C428.109253,800.359680 417.017883,800.306335 411.250366,792.567139 
	C407.460663,787.481934 406.058655,781.497498 405.245850,775.346985 
	C403.231293,760.102051 403.065704,744.872986 406.135315,729.744324 
	C407.255463,724.223633 408.174530,718.043579 415.014252,716.616211 
	C421.946503,715.169617 428.145752,717.148132 433.248199,722.831177 
M415.760193,727.433899 
	C415.274353,729.187073 414.590332,730.911804 414.334656,732.697937 
	C412.608002,744.760864 412.859192,756.910522 413.525513,769.003784 
	C413.858765,775.051758 414.357239,781.290588 417.171051,786.936951 
	C418.266815,789.135742 419.783508,790.875610 422.455261,790.856201 
	C424.943237,790.838074 426.335022,789.103699 427.321564,787.110901 
	C429.023376,783.673096 430.059784,780.027100 430.743195,776.233337 
	C433.137543,762.942261 430.711853,749.746033 430.122253,736.514954 
	C429.996094,733.683960 429.534515,730.918030 428.062134,728.391541 
	C425.212006,723.501038 420.542786,722.842834 415.760193,727.433899 
z"/>
<path fill="#000000" opacity="1.000000" stroke="none" 
	d="
M483.293030,780.987000 
	C482.260925,784.932983 481.143494,788.397278 479.121490,791.521545 
	C473.325897,800.476807 461.579529,800.212646 456.272125,790.889465 
	C452.432068,784.143982 452.203979,776.489929 451.828369,769.086304 
	C451.061432,753.969482 452.323517,738.804688 451.133759,723.671326 
	C450.928436,721.059937 451.218719,717.905396 454.956512,717.819641 
	C458.470062,717.739075 459.069397,720.441895 459.364624,723.303040 
	C460.272675,732.103394 460.200653,740.928650 459.931610,749.741638 
	C459.625854,759.758240 461.332245,769.648499 461.484619,779.629944 
	C461.504578,780.935730 461.962769,782.241943 462.273193,783.534729 
	C462.956970,786.382568 464.559570,788.421448 467.628876,788.654419 
	C471.034088,788.912964 472.763916,786.723328 473.732880,783.816772 
	C475.914246,777.273071 476.051331,770.409668 476.735504,763.640869 
	C478.144287,749.703186 477.729980,735.714050 477.754822,721.739075 
	C477.760010,718.807861 477.606384,715.842346 481.762360,715.660339 
	C485.809662,715.483154 487.308167,718.142639 487.003723,721.396667 
	C485.161316,741.087646 487.817474,761.055420 483.293030,780.987000 
z"/>
<path fill="#000000" opacity="1.000000" stroke="none" 
	d="
M226.860367,741.261597 
	C230.120163,757.489624 230.048599,773.756409 233.990479,789.454346 
	C234.718704,792.354431 235.369568,796.312012 230.834763,797.059082 
	C226.345581,797.798706 224.699829,794.988831 224.462860,790.813843 
	C224.303574,788.007568 223.621048,785.233459 223.228287,782.437195 
	C222.863068,779.837036 221.666794,778.474060 218.840698,777.953247 
	C211.487961,776.598328 210.643143,777.053345 209.325119,784.420715 
	C208.857758,787.033203 208.278961,789.634155 207.585510,792.195496 
	C206.786301,795.147461 205.331497,797.653076 201.680725,796.739685 
	C197.922073,795.799377 197.491791,793.145020 198.391312,789.721252 
	C202.697815,773.330017 206.364304,756.792297 209.130386,740.068970 
	C210.159424,733.847656 211.009247,727.587402 211.658585,721.315735 
	C212.072479,717.318176 214.080658,715.693420 217.905182,716.000183 
	C221.383255,716.279175 224.334320,716.742737 224.578278,721.517273 
	C224.908234,727.974609 225.997925,734.393066 226.860367,741.261597 
M216.746597,742.949829 
	C214.636627,750.805847 213.710876,758.880920 212.343430,766.873474 
	C211.823151,769.914307 213.049210,771.733582 216.307724,771.692383 
	C218.452911,771.665283 221.602219,772.784180 221.505859,769.052429 
	C221.266388,759.777405 220.590668,750.496155 217.941727,741.557129 
	C217.459183,739.928711 217.264923,742.055298 216.746597,742.949829 
z"/>
<path fill="#000000" opacity="1.000000" stroke="none" 
	d="
M591.793945,784.922974 
	C596.867188,763.846741 601.680359,743.138489 603.727905,721.910461 
	C604.070374,718.359619 605.221863,715.801331 609.410706,715.859375 
	C614.841003,715.934631 616.694946,717.468872 617.133972,722.064270 
	C619.186829,743.553040 622.214539,764.913330 625.738403,786.206116 
	C626.036377,788.006714 626.184570,789.835510 626.552063,791.620422 
	C627.139099,794.471436 626.635132,796.745605 623.362061,797.184387 
	C620.124023,797.618469 617.769653,796.270325 617.189331,792.854736 
	C616.632996,789.580444 616.210571,786.276306 615.896790,782.969360 
	C615.247498,776.127380 609.489746,778.511292 605.820496,777.579163 
	C602.151611,776.647034 602.265076,780.157471 601.735779,782.454895 
	C600.990723,785.688232 600.580017,789.005615 599.711060,792.201416 
	C598.863037,795.320374 597.150574,797.856812 593.303467,796.807861 
	C589.342041,795.727722 589.419067,792.852234 590.503235,789.647217 
	C590.981689,788.232727 591.310059,786.767395 591.793945,784.922974 
M612.556213,753.908264 
	C611.358826,749.177551 612.147888,744.090088 609.686096,739.438660 
	C607.512634,749.077087 605.680481,758.747437 604.113037,768.460449 
	C603.514771,772.168091 606.693237,771.596985 608.846985,771.806335 
	C611.195923,772.034790 613.854797,772.285339 613.663879,768.672607 
	C613.419434,764.046631 612.985596,759.430786 612.556213,753.908264 
z"/>
<path fill="#000000" opacity="1.000000" stroke="none" 
	d="
M267.317383,737.704468 
	C266.972290,742.423828 265.579651,746.345825 262.927185,749.658997 
	C260.991241,752.077087 260.505524,754.392395 261.146729,757.478271 
	C263.419312,768.414978 265.813416,779.285950 270.750610,789.410767 
	C270.968689,789.857971 271.131714,790.333984 271.296234,790.805054 
	C272.184113,793.347961 273.517944,796.325806 270.043976,797.655457 
	C266.813477,798.891846 264.696045,796.565002 263.455719,793.800659 
	C260.310822,786.791504 258.323669,779.392151 256.364838,771.988037 
	C255.393005,768.314758 254.793121,764.515930 252.483994,760.270325 
	C251.759888,771.179443 252.002533,781.177185 253.589844,791.127014 
	C254.056488,794.052185 254.053284,796.716736 250.465271,797.248169 
	C246.488724,797.837097 245.084824,795.210999 245.012772,791.801575 
	C244.527252,768.827576 244.109955,745.852051 243.678223,722.876892 
	C243.602509,718.847107 245.368042,716.828247 249.632568,716.630615 
	C261.592834,716.076477 267.345123,721.357971 267.344086,733.248657 
	C267.343964,734.581177 267.331940,735.913635 267.317383,737.704468 
M252.302963,740.179932 
	C252.677582,742.424561 251.476517,745.082825 253.770905,747.003357 
	C256.044464,745.485962 256.463043,743.245667 257.058777,741.262085 
	C258.394135,736.815796 259.580994,732.291931 257.933868,727.620850 
	C257.345154,725.951233 256.405823,724.433167 254.505066,724.530762 
	C252.185745,724.649658 252.350082,726.695312 252.321091,728.314819 
	C252.255814,731.962769 252.298233,735.612732 252.302963,740.179932 
z"/>
<path fill="#000000" opacity="1.000000" stroke="none" 
	d="
M568.947998,746.364624 
	C571.277100,746.731995 573.278809,746.772766 575.239990,747.075439 
	C577.802063,747.470947 579.711121,748.879578 579.606995,751.660217 
	C579.501709,754.471924 577.296082,756.192383 574.889099,755.734985 
	C568.354309,754.493164 567.613953,758.358521 567.557373,763.158569 
	C567.469116,770.650513 567.450500,778.143677 567.306030,785.634460 
	C567.239014,789.109375 569.097778,789.989807 572.090576,789.531250 
	C574.555908,789.153442 577.015320,788.488586 579.505066,789.220093 
	C581.736023,789.875549 583.574036,791.067993 583.286255,793.738708 
	C583.031494,796.103516 581.263062,797.205200 579.097656,797.255310 
	C574.106506,797.370667 569.097168,797.490356 564.120483,797.190430 
	C560.180115,796.952942 558.988098,793.959106 558.886292,790.475769 
	C558.419617,774.511841 557.731506,758.528503 559.243713,742.600830 
	C559.772827,737.027466 558.511047,731.661926 558.618652,726.176636 
	C558.757080,719.120789 561.900696,716.096680 568.958923,716.906921 
	C572.409119,717.302856 575.832214,718.151611 579.187256,719.084229 
	C581.445374,719.711975 583.037964,721.244751 582.333923,723.927124 
	C581.697388,726.352600 580.054321,727.320984 577.502258,727.295959 
	C574.539612,727.266907 571.045593,724.274231 568.743530,727.642822 
	C567.088013,730.065430 568.056458,733.497009 567.986694,736.475281 
	C567.910950,739.706299 566.293396,743.069153 568.947998,746.364624 
z"/>
<path fill="#000000" opacity="1.000000" stroke="none" 
	d="
M312.867798,774.728149 
	C312.159332,762.767578 314.004517,751.340515 313.654785,739.865967 
	C313.518463,735.393982 312.843231,730.926147 312.904968,726.463196 
	C313.004822,719.245361 316.600647,716.151978 323.741028,716.897888 
	C327.201019,717.259338 330.686432,717.753723 333.906769,719.236511 
	C335.799072,720.107849 337.581970,721.202881 336.892883,723.712585 
	C336.260529,726.015747 334.761017,727.439819 332.181641,727.307983 
	C331.518127,727.274109 330.853363,727.220337 330.195343,727.130432 
	C322.259430,726.046509 322.259003,726.044312 322.220093,733.859558 
	C322.211823,735.522766 322.209503,737.186035 322.207336,738.849243 
	C322.198120,745.928040 322.193115,745.966309 329.349365,746.976990 
	C332.028992,747.355408 333.795349,748.715881 333.850769,751.412476 
	C333.907532,754.174011 331.990906,755.494263 329.427124,755.948914 
	C322.272736,757.217712 322.264893,757.216919 322.196289,764.585327 
	C322.132812,771.404175 322.191559,778.226196 321.995087,785.040955 
	C321.884399,788.881897 323.572845,790.192932 327.164429,789.515503 
	C329.622192,789.051941 332.073059,788.550781 334.553680,789.386230 
	C336.405273,790.009766 337.986755,791.036255 337.995422,793.154358 
	C338.005005,795.502625 336.347321,797.014038 334.243103,797.102356 
	C328.773285,797.331970 323.264832,797.466431 317.816040,797.054382 
	C314.701385,796.818848 313.747162,794.049683 313.671661,791.116455 
	C313.534943,785.806519 314.021698,780.464844 312.867798,774.728149 
z"/>
<path fill="#000000" opacity="1.000000" stroke="none" 
	d="
M536.958984,716.698364 
	C537.273865,737.813293 537.735474,758.587708 538.252991,779.360657 
	C538.356384,783.512573 538.812195,787.658142 538.841309,791.808533 
	C538.859924,794.470215 537.904663,796.906128 534.743042,797.126831 
	C531.544006,797.350037 529.675659,795.307739 529.260193,792.432556 
	C528.812073,789.331787 528.553406,786.072266 529.000244,782.996460 
	C530.839539,770.336975 529.174316,757.740173 528.379028,745.166260 
	C527.873474,737.172546 528.907166,729.218445 528.105042,721.246704 
	C527.776733,717.982910 526.838318,716.310974 523.232483,716.816406 
	C521.645508,717.038757 519.908875,716.743469 518.332092,716.331360 
	C516.786621,715.927368 515.880249,714.680664 515.784485,712.996826 
	C515.684204,711.232605 516.619446,710.208618 518.209839,709.678162 
	C526.242310,706.999451 534.593140,707.355408 542.866272,707.306519 
	C545.118591,707.293274 547.060852,709.024963 546.875366,711.581360 
	C546.693481,714.087463 544.803711,715.157166 542.348816,715.335449 
	C540.577454,715.464172 538.640625,714.879761 536.958984,716.698364 
z"/>
<path fill="#000000" opacity="1.000000" stroke="none" 
	d="
M372.760284,739.985474 
	C372.509125,731.016541 372.155243,722.527039 372.077972,714.035156 
	C372.049042,710.857910 371.438232,706.724976 376.579773,706.793945 
	C381.368134,706.858154 381.204559,710.447144 381.289246,713.952820 
	C381.844513,736.934143 382.552643,759.911987 383.051758,782.894348 
	C383.131317,786.556763 384.397614,787.974304 388.080627,787.788940 
	C391.880585,787.597717 396.875061,787.232422 396.757111,792.578613 
	C396.646667,797.582214 391.750946,796.824585 388.140808,796.948547 
	C385.478149,797.039978 382.816650,797.211365 380.153595,797.237061 
	C376.192383,797.275330 373.424561,795.467590 373.833435,791.306213 
	C375.504120,774.302185 373.329498,757.404663 372.760284,739.985474 
z"/>
<path fill="#000000" opacity="1.000000" stroke="none" 
	d="
M279.004333,720.854187 
	C284.736298,716.222351 291.255219,716.557861 297.688782,716.893250 
	C299.650482,716.995544 300.888550,718.708252 300.978821,720.740417 
	C301.084442,723.118774 299.598114,724.684204 297.405334,724.777344 
	C292.304657,724.994080 292.379669,727.893005 292.640900,731.903748 
	C293.720886,748.486450 294.516174,765.089050 295.253998,781.691528 
	C295.398010,784.932495 295.339355,787.601257 299.764771,787.543945 
	C301.965729,787.515381 303.341309,789.227417 303.539551,791.500488 
	C303.730957,793.695312 302.274719,795.149658 300.486542,795.541748 
	C293.914185,796.982788 287.308655,797.033691 280.841797,794.845581 
	C279.267059,794.312744 278.475708,793.081116 278.639191,791.348694 
	C278.805298,789.588867 280.020172,788.372131 281.501099,788.337524 
	C286.916199,788.210938 286.978027,784.741760 286.665741,780.799255 
	C285.338837,764.047852 284.459473,747.278381 284.896057,730.465271 
	C284.960083,727.999939 284.346069,726.347290 281.490417,725.980774 
	C278.711609,725.624084 278.059753,723.708191 279.004333,720.854187 
z"/>
<path fill="#000000" opacity="1.000000" stroke="none" 
	d="
M347.423584,256.382263 
	C324.970673,262.772797 309.968597,277.494080 299.651031,297.428406 
	C296.608215,295.493011 297.627350,293.738312 298.274933,292.087524 
	C310.146423,261.826721 349.761810,242.445953 380.326691,252.071503 
	C392.106598,255.781281 401.477905,262.470581 405.996521,274.570129 
	C406.976105,277.193176 406.949066,277.203278 404.995941,280.933075 
	C393.276184,254.925842 372.207275,251.547485 347.423584,256.382263 
z"/>
<path fill="#000000" opacity="1.000000" stroke="none" 
	d="
M381.953491,270.940613 
	C359.646057,264.112549 339.038300,275.681183 331.322998,298.991882 
	C329.389618,304.833282 327.534485,310.704834 325.423279,316.482086 
	C323.035370,323.016418 319.091583,328.546112 313.764069,333.040985 
	C311.188629,335.213898 308.302521,336.856171 304.934265,337.446381 
	C303.758942,337.652374 302.465912,337.618652 302.056396,336.185760 
	C301.739471,335.076813 302.447937,334.184479 303.428406,333.809967 
	C318.274384,328.139191 321.793243,314.643707 325.665161,301.482086 
	C329.923096,287.008331 337.069855,274.728424 351.402740,268.274323 
	C366.423706,261.510376 380.879425,262.768188 394.266815,272.745117 
	C395.723053,273.830353 397.062195,275.133087 398.232880,276.522644 
	C399.232330,277.708923 401.012390,279.214417 399.343933,280.772491 
	C397.637543,282.365997 396.379517,280.492279 395.249481,279.333588 
	C391.581909,275.573029 387.315552,272.764801 381.953491,270.940613 
z"/>
<path fill="#000000" opacity="1.000000" stroke="none" 
	d="
M493.474182,387.578522 
	C493.001923,385.552826 492.604614,383.941376 492.220764,382.326721 
	C491.908783,381.014221 491.485657,379.496826 493.191071,378.954865 
	C494.918396,378.405945 495.468597,380.009796 495.955231,381.177246 
	C498.028564,386.151245 498.552429,391.513763 498.969788,396.756989 
	C499.941467,408.963531 498.994202,420.980530 493.082428,432.098328 
	C492.538055,433.122070 491.983673,434.154419 491.305420,435.089569 
	C490.493713,436.208740 489.419128,437.209808 487.989929,436.185730 
	C486.770752,435.312164 487.362122,434.048187 487.906555,433.031403 
	C490.668091,427.874023 492.694061,422.469269 493.778107,416.704010 
	C495.581635,407.112335 495.202362,397.549927 493.474182,387.578522 
z"/>
<path fill="#000000" opacity="1.000000" stroke="none" 
	d="
M416.926208,270.279999 
	C415.407349,272.350769 416.030884,276.957611 412.358124,275.771545 
	C408.901642,274.655273 411.743561,271.435852 412.239349,269.335754 
	C415.067474,257.356445 408.688049,245.411285 396.261719,239.867416 
	C392.127289,238.022888 392.127289,238.022903 390.263824,235.618164 
	C393.038391,233.499619 395.705078,234.912369 398.130096,235.983017 
	C408.752380,240.672745 419.275177,251.505310 417.162476,269.383881 
	C417.167603,269.828339 416.993622,270.122833 416.926208,270.279999 
z"/>
<path fill="#000000" opacity="1.000000" stroke="none" 
	d="
M439.943665,257.702759 
	C434.696777,258.696625 432.259155,263.232574 428.323151,265.904053 
	C425.805481,263.094116 427.485291,261.240753 428.935211,259.569794 
	C434.413239,253.256592 441.446533,251.619400 449.267303,253.619324 
	C453.408783,254.678375 457.735840,256.087067 458.674194,261.686005 
	C452.615967,259.581543 447.014648,255.949844 439.943665,257.702759 
z"/>
<path fill="#000000" opacity="1.000000" stroke="none" 
	d="
M389.114563,318.851837 
	C391.219757,319.770386 392.025299,321.828003 389.916595,321.873260 
	C380.532043,322.074799 371.372040,323.385315 362.257812,325.762512 
	C370.010376,319.222809 379.172424,318.286011 389.114563,318.851837 
z"/>
<path fill="#000000" opacity="1.000000" stroke="none" 
	d="
M421.638855,346.886230 
	C419.424255,339.931854 419.393921,339.429382 421.262024,334.952118 
	C423.977264,339.689819 424.260712,344.399109 425.623535,348.704559 
	C423.073273,350.048767 422.494049,348.494080 421.638855,346.886230 
z"/>
<path fill="#000000" opacity="1.000000" stroke="none" 
	d="
M408.583923,339.418884 
	C409.652222,344.594696 409.716125,349.271271 405.120178,353.123840 
	C403.888306,348.743103 406.017242,340.366364 408.583923,339.418884 
z"/>
<path fill="#000000" opacity="1.000000" stroke="none" 
	d="
M435.085510,428.981140 
	C440.314148,427.666443 445.163635,426.493500 450.006165,425.292572 
	C454.054077,424.288727 454.722473,426.147797 453.862915,429.613892 
	C449.584717,446.865448 440.647339,454.384918 422.782654,456.204224 
	C407.750183,457.735077 394.947052,452.899750 383.638611,443.336273 
	C382.401337,442.289886 380.656616,441.340942 381.164185,439.365601 
	C381.640198,437.513153 383.424713,437.060272 385.085327,436.739410 
	C396.992401,434.438721 408.759705,431.097107 421.070953,431.737183 
	C425.844543,431.985382 430.278198,430.602020 435.085510,428.981140 
M444.043640,431.956329 
	C442.524536,430.877533 441.032654,431.845703 439.790527,432.353699 
	C431.123596,435.898315 422.121765,436.585083 412.861359,436.496765 
	C407.051880,436.441345 401.340607,438.048157 395.828217,440.137665 
	C407.821014,440.821777 419.771423,441.340088 431.584808,438.727936 
	C436.277161,437.690369 441.031799,436.706726 444.043640,431.956329 
z"/>
<path fill="#000000" opacity="1.000000" stroke="none" 
	d="
M370.897034,495.116089 
	C365.564819,494.533417 361.771637,491.099976 358.042480,487.925568 
	C350.157715,481.213898 343.699310,473.226227 338.625580,464.162933 
	C337.905701,462.876984 336.991394,461.611938 337.936798,459.946686 
	C340.372314,458.807739 341.047028,460.903717 342.007874,462.298370 
	C349.375702,472.992584 357.072937,483.357086 368.508728,490.198395 
	C369.928955,491.048004 371.196564,492.208069 371.127991,494.510376 
	C371.139191,494.871704 370.976654,495.033508 370.897034,495.116089 
z"/>
<path fill="#000000" opacity="1.000000" stroke="none" 
	d="
M352.173004,432.888306 
	C355.060822,434.716522 353.779449,437.443756 354.050751,439.782928 
	C354.442413,443.159729 354.564453,446.567749 354.816803,450.181152 
	C349.751648,447.843750 348.330414,438.417664 352.173004,432.888306 
z"/>
<path fill="#000000" opacity="1.000000" stroke="none" 
	d="
M367.119293,544.955811 
	C362.717255,546.155884 362.380127,551.034058 358.740814,553.159302 
	C356.464691,549.014282 358.776733,546.385803 361.074738,543.903259 
	C363.290405,541.509766 366.284088,540.442078 369.431305,539.929443 
	C370.909576,539.688782 372.744019,539.698792 373.135468,541.503723 
	C373.538422,543.361694 371.939667,543.974487 370.373322,544.267578 
	C369.403778,544.448975 368.433105,544.624268 367.119293,544.955811 
z"/>
<path fill="#000000" opacity="1.000000" stroke="none" 
	d="
M337.957581,641.951538 
	C341.122528,636.910034 343.845703,631.799316 350.360046,631.452698 
	C351.256958,633.355652 350.554321,634.113159 349.707458,634.673035 
	C346.138031,637.032959 343.553162,640.215637 341.617035,643.991882 
	C340.998901,645.197449 340.196411,646.480286 338.552490,645.737854 
	C336.913147,644.997620 337.404236,643.578125 337.957581,641.951538 
z"/>
<path fill="#000000" opacity="1.000000" stroke="none" 
	d="
M386.550201,589.762939 
	C389.585876,588.856018 390.296539,585.607849 392.981537,584.531677 
	C395.394104,586.578613 394.286926,588.481750 393.007416,590.231873 
	C391.017578,592.953552 387.914520,593.839050 384.890381,594.785522 
	C383.341827,595.270264 381.646637,595.330811 381.135345,593.516541 
	C380.560822,591.477844 382.475128,591.221191 383.855591,590.736206 
	C384.639038,590.461060 385.422272,590.185181 386.550201,589.762939 
z"/>
<path fill="#000000" opacity="1.000000" stroke="none" 
	d="
M371.036499,569.405884 
	C373.215698,566.492920 376.135254,565.371094 379.037598,564.235840 
	C380.146088,563.802246 381.384338,563.525513 382.078735,564.801514 
	C382.762238,566.057434 381.961700,567.070862 380.940155,567.682861 
	C378.553772,569.112427 376.148407,570.535645 373.638916,571.725647 
	C371.898285,572.551086 370.777557,571.870911 371.036499,569.405884 
z"/>
<path fill="#000000" opacity="1.000000" stroke="none" 
	d="
M352.572876,518.653870 
	C354.595886,518.225647 356.701477,518.851013 355.476776,520.531128 
	C353.184784,523.675537 349.962128,526.141663 346.271790,529.718384 
	C345.312195,523.166199 348.975403,521.091797 352.572876,518.653870 
z"/>
<path fill="#000000" opacity="1.000000" stroke="none" 
	d="
M423.115112,526.081055 
	C424.369324,528.846924 424.507111,531.641541 424.212433,534.473633 
	C424.083008,535.717346 423.519226,536.789185 422.109406,536.795654 
	C420.637909,536.802429 419.951294,535.527466 420.127472,534.427307 
	C420.581787,531.590881 418.028229,528.014099 422.421478,525.893677 
	C422.791504,525.779358 423.005341,525.982605 423.115112,526.081055 
z"/>
<path fill="#000000" opacity="1.000000" stroke="none" 
	d="
M402.386139,495.059448 
	C402.734009,492.188843 404.029694,492.012299 405.661652,493.642883 
	C406.326630,494.307312 406.839630,495.354828 406.959351,496.287445 
	C407.237091,498.450958 409.164429,501.683228 406.438324,502.548706 
	C402.782349,503.709381 404.291229,499.440552 403.166809,497.786224 
	C402.723511,497.134094 402.685333,496.206573 402.386139,495.059448 
z"/>
<path fill="#000000" opacity="1.000000" stroke="none" 
	d="
M387.842499,379.085266 
	C389.430359,378.537323 390.728333,377.983765 391.659485,379.524475 
	C388.367523,384.977875 376.072327,388.368225 369.608673,384.660828 
	C375.971344,382.264252 382.310516,382.309753 387.842499,379.085266 
z"/>
<path fill="#000000" opacity="1.000000" stroke="none" 
	d="
M439.411072,364.446716 
	C437.444031,365.155731 435.594757,366.856201 434.223572,364.711426 
	C432.940704,362.704773 434.816406,361.407837 436.143372,360.178558 
	C443.553497,353.314056 451.492584,352.302094 460.264557,357.144379 
	C462.285645,358.260010 464.132629,359.675476 466.689758,359.342163 
	C467.895508,359.184998 469.081451,359.694672 469.213226,361.144012 
	C469.369232,362.859009 468.047394,363.437073 466.713684,363.686432 
	C464.687958,364.065216 462.799225,363.278778 460.917206,362.660217 
	C453.636078,360.267090 446.577454,360.721436 439.411072,364.446716 
z"/>
<path fill="#000000" opacity="1.000000" stroke="none" 
	d="
M455.993591,374.633514 
	C450.093475,375.372101 444.454498,376.671814 439.558411,372.853333 
	C440.337097,370.493866 441.661621,370.638580 442.700348,370.902252 
	C446.771759,371.935730 450.878632,371.715363 454.999054,371.548645 
	C456.129822,371.502899 457.498810,371.343994 457.856171,372.803680 
	C458.085144,373.738861 457.165375,374.165222 455.993591,374.633514 
z"/>
</svg>