<svg version="1.1" id="Layer_1" xmlns="http://www.w3.org/2000/svg" xmlns:xlink="http://www.w3.org/1999/xlink" x="0px" y="0px"
	 width="100%" viewBox="0 0 752 1024" enable-background="new 0 0 752 1024" xml:space="preserve">
<path fill="#000000" opacity="1.000000" stroke="none" 
	d="
M540.892212,543.118958 
	C535.356750,538.497253 529.628723,534.799377 523.687012,531.395264 
	C520.767212,529.722412 518.574524,529.423218 517.055237,533.169861 
	C510.928406,548.278809 498.685120,553.332397 483.487213,553.022644 
	C478.963196,552.930481 477.126892,554.680603 476.063873,559.014954 
	C471.277222,578.532532 459.864014,591.898132 439.732849,596.762817 
	C430.335510,599.033691 421.197876,597.485352 412.224274,594.667175 
	C408.230804,593.413025 405.187927,593.238892 403.584717,598.000305 
	C403.140289,599.320190 401.997742,600.761414 400.782379,601.408569 
	C391.695923,606.246216 385.767883,615.074097 376.845917,620.127380 
	C373.409088,622.073975 371.501068,625.542664 369.902344,629.080933 
	C365.430969,638.976929 362.866852,649.540405 359.167847,659.704834 
	C358.246338,662.237061 359.584503,663.745850 360.744019,665.578796 
	C364.820251,672.022522 362.683624,686.653503 357.021027,691.604309 
	C356.347351,692.193237 355.585297,692.403198 354.140289,691.843140 
	C352.263519,686.384399 357.533295,681.892944 357.142395,676.553833 
	C326.420776,671.043457 305.046631,652.502136 287.801483,627.430115 
	C284.618378,631.592896 282.631012,636.707642 280.130432,641.500793 
	C275.199463,650.952759 270.456604,660.502869 265.629425,670.009094 
	C265.252655,670.751099 264.886444,671.510742 264.408417,672.186523 
	C263.288818,673.769226 262.271851,676.303772 259.930603,675.148193 
	C257.579681,673.987915 258.796997,671.576172 259.647675,669.861206 
	C263.126495,662.847778 266.759949,655.911255 270.317230,648.936584 
	C273.420807,642.851562 276.538300,636.773193 279.575348,630.654968 
	C282.022247,625.725708 284.032593,620.498169 290.276306,618.996521 
	C291.820160,618.625183 292.376923,616.944458 293.010834,615.586426 
	C299.273743,602.171143 306.345673,589.125122 310.126862,574.631226 
	C312.195221,566.702942 316.261169,559.530334 320.479950,552.516052 
	C321.166809,551.374084 321.872864,550.239685 322.637756,549.149231 
	C329.076782,539.969604 331.434296,531.529968 322.205414,521.896362 
	C315.179321,514.562134 311.800964,504.609100 310.367859,494.275940 
	C307.483246,494.372955 305.340393,495.783356 303.301331,497.091095 
	C286.396301,507.933350 267.858398,515.519226 249.823898,524.112366 
	C239.269058,529.141541 229.081650,534.776794 220.242630,542.575500 
	C206.420944,554.770386 200.629105,571.198975 196.292831,588.315308 
	C190.076019,612.854675 186.092209,637.819519 182.603302,662.866882 
	C182.305267,665.006592 182.359085,667.194946 182.069443,669.336365 
	C181.827698,671.123596 181.615158,673.431152 179.220139,673.339172 
	C176.742355,673.244080 176.817245,670.921387 176.839920,669.111633 
	C176.934143,661.591064 178.521622,654.250122 179.669052,646.859314 
	C182.833344,626.477722 187.040634,606.312744 191.289352,586.123962 
	C198.055527,553.973022 217.075134,532.866272 246.330200,519.718445 
	C258.482025,514.257141 270.522125,508.532593 282.468048,502.634094 
	C288.077148,499.864471 293.343018,496.399658 299.932587,492.571289 
	C294.553070,491.258789 290.567139,490.395966 286.643433,489.308777 
	C273.974457,485.798523 263.936707,478.592560 256.127502,467.987976 
	C240.123535,446.255249 235.616394,422.675262 243.295197,396.610352 
	C245.599792,388.787628 249.014374,381.320068 250.618027,373.307037 
	C252.616287,363.322327 253.204926,353.132050 253.548294,343.024963 
	C255.182907,294.910248 277.787231,259.615356 318.494568,235.142014 
	C333.736450,225.978561 350.294861,220.281967 367.980133,219.229797 
	C385.868652,218.165543 403.010193,220.890793 415.786469,235.545456 
	C416.739441,236.638550 417.665314,237.281189 419.229950,236.660034 
	C434.295929,230.679092 446.462097,237.121506 457.942688,245.943832 
	C473.202881,257.670715 478.467224,274.457367 481.245850,292.506958 
	C482.560303,301.045380 484.320282,309.514618 485.695435,318.044647 
	C486.249298,321.480103 488.154388,323.166168 491.314758,324.189056 
	C497.176758,326.086243 497.876801,326.817261 501.327515,332.767487 
	C496.504547,334.304230 494.695648,327.910522 490.038940,328.684601 
	C490.262970,332.217987 491.916290,335.141266 493.327057,338.042084 
	C497.187927,345.980804 501.362030,353.766693 505.259705,361.688110 
	C512.020386,375.427948 515.589905,389.821198 513.136292,405.199615 
	C512.364990,410.034027 511.915527,415.210632 507.341827,418.512268 
	C506.871674,418.851685 506.548157,419.611328 506.453461,420.222015 
	C504.382660,433.576385 498.123169,444.675079 487.520203,454.292969 
	C491.031097,455.395386 493.926422,455.500458 496.827576,455.591034 
	C505.032013,455.847076 513.091003,457.062592 520.865540,459.716156 
	C529.371582,462.619354 531.179382,465.522278 531.385681,474.394531 
	C531.758118,490.408142 529.531433,505.949127 523.393005,520.806458 
	C522.307129,523.434875 523.156494,524.637085 525.399536,525.927795 
	C532.479248,530.001709 539.364136,534.419617 545.538452,539.792603 
	C556.944946,549.718689 562.190796,563.245117 566.903687,577.042603 
	C576.777771,605.950195 582.121399,635.986938 588.949097,665.653198 
	C589.170898,666.616821 589.210999,667.637573 589.215881,668.632202 
	C589.223267,670.126221 589.371033,671.948792 587.494873,672.338745 
	C585.193237,672.817139 584.853577,670.869202 584.478760,669.221985 
	C581.230042,654.944153 578.149963,640.625610 574.710571,626.393921 
	C569.239014,603.752869 564.408997,580.900574 553.889099,559.822083 
	C550.717346,553.466858 546.699951,547.838440 540.892212,543.118958 
M463.112152,332.708466 
	C463.348999,334.569397 462.647980,335.946716 460.680023,335.234680 
	C449.895996,331.332642 443.863922,338.433838 437.495636,344.866272 
	C444.489685,342.199188 451.682495,340.463837 459.079620,339.463379 
	C465.593536,338.582367 465.808929,338.087982 462.880859,331.225555 
	C460.475159,321.689423 457.890930,312.197540 453.717316,303.256348 
	C447.968414,290.940338 440.126343,280.373047 428.093750,273.398163 
	C426.515076,272.483093 423.609100,271.674957 425.067932,269.185089 
	C426.410126,266.894287 428.707642,268.716797 430.383514,269.540619 
	C432.615173,270.637604 434.761688,271.952911 436.810883,273.368317 
	C446.131226,279.806030 452.470032,288.699646 457.204742,298.794220 
	C462.597870,310.292572 466.142822,322.450867 469.428101,334.675781 
	C470.220245,337.623444 471.383026,339.484406 474.696777,340.375885 
	C481.876343,342.307434 484.831696,346.363647 485.227478,353.722534 
	C485.569946,360.089661 485.442657,366.421692 482.327179,372.244232 
	C481.463165,373.858887 481.546112,375.342682 482.111145,377.020447 
	C487.537384,393.132233 486.653381,409.476959 483.858215,425.894714 
	C482.282593,435.149231 480.578217,444.379486 478.231995,453.496613 
	C479.993561,453.850586 480.724640,453.008057 481.458160,452.416534 
	C491.538422,444.287384 498.209625,434.061401 500.773224,421.235077 
	C502.325867,413.466766 501.992249,405.660370 501.781311,397.833374 
	C501.728516,395.873230 501.107117,393.532623 503.798218,392.224701 
	C505.904266,394.523224 506.161499,397.200195 506.599915,399.743256 
	C507.042694,402.311554 507.202545,404.928650 507.455566,407.242920 
	C510.815308,392.078217 507.225342,377.709290 500.563232,363.920288 
	C494.118408,350.581085 486.574738,337.771362 481.391846,323.821259 
	C480.960846,322.661102 479.885010,321.580933 478.842560,320.836334 
	C475.173920,318.215759 472.836304,314.595764 471.050537,310.619781 
	C468.800385,305.609680 466.706879,300.523834 464.708710,295.407013 
	C461.223969,286.483459 455.099487,280.358215 446.004974,277.244293 
	C444.319763,276.667297 442.266479,276.381744 442.755493,273.761932 
	C445.701965,273.019257 445.709869,272.993805 447.912292,273.678070 
	C458.395325,276.935059 465.065735,284.127991 469.027283,294.131104 
	C471.050323,299.239441 473.070404,304.350464 475.207153,309.411560 
	C476.061768,311.435852 477.036377,313.488525 479.799927,315.166962 
	C476.804230,300.178680 476.142181,285.600128 470.909729,271.946960 
	C464.628784,255.558044 452.690369,245.174011 436.128754,240.080154 
	C431.218292,238.569824 426.043213,238.553711 421.182098,240.578018 
	C420.550446,246.407440 424.295868,250.689896 424.976776,255.827988 
	C425.696899,261.261932 424.122711,266.020416 422.112701,270.806458 
	C420.954376,273.564606 419.068909,274.030304 416.537476,272.595825 
	C416.489197,272.568451 415.946320,273.298431 415.720184,273.721069 
	C414.892029,275.269043 413.937500,276.854919 411.911377,275.726288 
	C410.190338,274.767639 411.066406,273.144257 411.402344,271.697601 
	C414.995117,256.225525 409.512177,245.566498 394.824249,239.251724 
	C393.141846,238.528412 390.745728,238.441711 390.581085,234.823624 
	C399.528564,234.582870 405.538361,239.532272 410.707825,245.521179 
	C416.144775,251.819962 418.185272,259.504944 417.639008,267.911163 
	C420.790314,259.021515 420.788849,250.385681 415.202942,242.704941 
	C402.930359,225.829941 384.887543,222.257843 366.085297,224.686310 
	C323.435150,230.194946 292.359344,253.537155 271.527557,290.646942 
	C261.767181,308.034027 259.167847,327.400269 258.312988,347.032684 
	C258.074921,352.500458 257.778015,357.965637 257.464966,364.305847 
	C265.245392,354.828156 272.363129,346.245575 279.381927,337.582825 
	C286.249390,329.106842 289.341370,318.401123 295.305664,309.332214 
	C296.104645,314.942841 294.002411,319.633392 292.018127,324.337494 
	C286.481934,337.462097 277.183624,347.996887 268.087585,358.621216 
	C252.808273,376.467743 245.253540,397.636780 244.695999,420.519653 
	C244.153763,442.774994 254.431229,461.365265 271.164734,475.987274 
	C276.494751,480.644775 283.126160,483.299225 290.357849,484.284393 
	C281.034912,477.182251 273.860443,468.425842 270.157715,457.456146 
	C266.585144,446.872070 264.523254,435.944489 269.593842,424.744873 
	C272.506714,426.370728 271.931824,428.084259 271.699066,429.708008 
	C270.168213,440.388580 271.374878,450.699585 276.531433,460.256744 
	C283.917236,473.945587 293.788818,484.465576 310.726624,484.962128 
	C316.853943,485.141785 318.829681,483.491974 319.479553,477.256592 
	C320.435364,468.085571 319.238281,459.104126 316.168945,449.935211 
	C310.913544,453.590820 305.779785,454.064056 300.546967,450.712494 
	C296.790222,448.306305 294.007111,445.016266 292.034576,441.091522 
	C290.048767,437.140228 288.316711,433.061462 286.138855,428.308258 
	C285.109528,448.916656 293.081360,463.748993 311.070679,472.800568 
	C308.867828,475.604950 307.051758,474.726105 305.459991,474.009155 
	C300.082581,471.587189 295.299469,468.332550 291.550018,463.676727 
	C277.609619,446.366791 277.039703,420.600098 290.268127,402.732788 
	C297.987671,392.306183 307.246857,383.004272 313.213226,371.297913 
	C317.220001,363.436310 319.791656,355.181061 320.797913,345.825043 
	C314.705353,347.668365 308.473358,347.170776 305.800964,353.932770 
	C305.069611,355.783356 302.904541,357.089233 301.339661,358.584625 
	C295.408813,364.252014 288.384064,368.500305 281.923309,373.481476 
	C269.032776,383.419983 261.173126,396.244568 259.219635,412.529297 
	C259.032135,414.092468 259.272491,416.002258 256.907501,416.245514 
	C255.512985,413.273285 255.387192,411.186310 256.015686,406.748230 
	C258.285400,390.720215 267.149078,378.871399 279.664398,369.340607 
	C286.684967,363.994232 294.152008,359.225372 300.588654,353.125793 
	C302.041718,351.748810 304.174469,350.367554 304.175323,348.487976 
	C304.177063,344.765320 306.390411,344.178436 309.161774,343.685120 
	C328.830872,340.183868 339.512268,327.722595 343.699097,308.871429 
	C344.894226,303.490387 346.337341,298.212738 348.714478,293.210480 
	C356.230682,277.393860 371.878357,270.885498 388.332916,276.784393 
	C390.192902,277.451141 392.969177,278.058716 392.410400,280.362274 
	C391.691956,283.324097 389.102539,281.048889 387.327087,281.054047 
	C387.010406,281.054993 386.697418,280.846466 386.375519,280.762207 
	C370.462158,276.597229 357.604828,283.340942 351.993866,298.982117 
	C350.254364,303.831207 348.810944,308.802826 347.518127,313.792511 
	C344.573822,325.156189 339.050507,334.732819 329.127472,341.420593 
	C327.600891,342.449402 325.826904,343.474579 325.640564,345.455811 
	C324.875092,353.595032 322.763641,361.421692 319.722900,369.995697 
	C328.211060,369.231812 335.934723,368.542694 343.656708,367.835114 
	C344.747314,367.735168 345.495850,367.084686 345.915985,366.100342 
	C349.648163,357.355560 357.561707,354.821289 365.762390,352.656494 
	C372.862396,350.782257 380.141693,350.559235 388.442535,350.396332 
	C374.166656,343.127747 361.846985,344.625763 350.879547,355.264984 
	C349.225555,351.903900 350.915009,350.670441 352.219757,349.567596 
	C357.805298,344.846558 364.159271,341.218719 371.500336,340.927002 
	C380.163239,340.582764 389.532684,339.695404 393.981659,350.164886 
	C394.135864,350.527771 394.766144,350.781525 395.223755,350.908020 
	C400.062744,352.245514 404.572906,353.926544 408.420593,357.546417 
	C412.989532,361.844818 417.554138,355.258606 422.329254,356.779968 
	C422.479889,356.827972 422.663422,356.760223 422.826721,356.782471 
	C425.376038,357.129486 426.634735,355.834137 427.793243,353.636047 
	C430.392181,348.705017 432.147095,343.205200 434.982880,338.643280 
	C440.567383,329.659515 453.369476,327.269379 463.112152,332.708466 
M478.342651,428.916016 
	C480.608215,412.666870 483.146698,396.410095 477.469513,380.240509 
	C464.422485,386.062378 451.780029,390.744904 438.210785,383.102539 
	C439.027649,388.177490 443.955597,389.529480 446.397583,392.915222 
	C450.772552,398.980988 455.875214,404.539154 459.394562,411.219116 
	C461.064453,414.388702 463.577942,416.733185 466.660095,418.601532 
	C468.327026,419.612061 471.854492,419.873749 470.750946,422.625549 
	C469.470703,425.817963 466.741577,422.896240 464.644470,422.851776 
	C464.351929,422.845520 464.054382,423.075958 463.753967,423.205841 
	C459.953827,433.073547 462.938019,443.095154 464.304382,453.333862 
	C460.989716,452.662537 460.935303,450.758453 460.354431,449.289948 
	C457.181854,441.269287 456.962524,433.069794 458.963776,424.750275 
	C459.391754,422.971069 460.365723,420.952576 459.392700,419.386963 
	C456.025452,413.969147 452.349182,408.743378 448.788849,403.441986 
	C446.596405,404.851746 446.278931,406.594330 445.558167,408.035217 
	C439.048615,421.047760 431.198059,423.622131 418.338776,416.881409 
	C415.827881,415.565155 413.362885,414.118744 410.384583,414.222076 
	C404.815826,414.415314 399.888885,413.131989 396.511505,407.467377 
	C394.929565,410.171783 393.660278,412.289032 392.441528,414.434967 
	C388.661713,421.090546 385.562317,428.280701 379.901672,433.586823 
	C376.505646,436.770203 376.227325,439.686249 377.867462,443.718719 
	C380.710083,450.707550 382.317841,458.028412 382.107483,465.635986 
	C382.062408,467.266388 382.842621,469.412872 379.184235,470.486328 
	C377.769104,460.284576 377.090607,449.992676 372.315582,440.566498 
	C371.212280,440.906433 370.272186,441.148804 369.367737,441.486542 
	C368.178223,441.930634 366.990112,442.074890 366.265869,440.860474 
	C365.382111,439.378510 366.246674,438.231689 367.491760,437.551788 
	C378.240173,431.682526 383.348694,421.274994 388.881805,411.181946 
	C391.775757,405.902954 395.074158,400.893097 399.695129,396.918365 
	C402.942719,394.124969 404.820770,394.079468 408.299072,396.703308 
	C407.270111,397.084503 406.272278,397.277679 405.471924,397.783356 
	C402.948120,399.377899 400.953613,401.537231 401.528168,404.715576 
	C402.152313,408.168152 404.979034,408.927612 408.027985,408.819458 
	C413.621765,408.621033 418.319397,410.959808 423.040833,413.592224 
	C429.257080,417.058075 434.117004,415.838806 438.114899,409.996887 
	C439.705170,407.673065 440.833252,405.038086 442.263947,402.598846 
	C444.548309,398.704132 443.478943,395.457672 440.122589,393.008759 
	C436.860748,390.628845 434.937836,387.431122 433.446594,383.860840 
	C430.879822,377.715576 428.320709,371.566132 425.865753,365.375854 
	C425.364899,364.112946 425.135620,362.927032 423.601959,362.403839 
	C418.002106,360.493469 411.746796,364.595245 411.119812,370.412750 
	C410.231720,378.653137 408.784790,387.013031 401.144958,391.826263 
	C390.476624,398.547455 378.569885,400.436981 366.109497,398.697632 
	C359.292938,397.746124 354.336975,393.731781 350.603271,388.371674 
	C344.075592,391.450439 341.832855,398.165710 336.466217,401.689880 
	C336.810333,393.744507 343.317566,389.909454 348.048065,384.491669 
	C342.387024,383.299103 337.295502,388.455109 331.021454,384.486298 
	C336.589142,381.467194 342.361877,382.361237 346.814148,379.500244 
	C347.230469,376.160583 345.391418,375.284698 342.658325,375.382690 
	C335.835846,375.627380 329.015808,375.955841 322.191711,376.130554 
	C318.989410,376.212524 318.456970,378.120941 318.357697,380.756470 
	C318.020630,389.701904 315.097626,397.693604 309.286011,404.575195 
	C305.661835,408.866638 305.131500,413.495605 307.804291,418.478790 
	C308.353577,419.502838 308.841370,420.576599 309.209778,421.676880 
	C309.733673,423.241394 310.464752,424.917084 308.908203,426.320160 
	C307.362305,427.713562 305.308167,427.822693 303.761749,426.885895 
	C299.513702,424.312469 294.922119,422.144318 291.695709,418.146210 
	C290.678741,416.885956 289.049591,415.569824 291.092438,413.986694 
	C292.752563,412.700134 294.255310,413.462250 295.379059,414.971283 
	C297.118774,417.307587 299.420410,418.782776 302.703857,420.057617 
	C300.535858,413.004303 301.152466,406.837158 305.797729,401.450745 
	C310.990082,395.430054 313.159210,388.204071 314.398590,379.158417 
	C308.313049,389.454956 300.665436,396.933899 294.456177,405.525024 
	C291.765717,409.247528 288.546539,413.039124 289.224304,418.126678 
	C290.529297,427.922455 294.166779,436.835602 300.906860,444.125793 
	C306.120361,449.764862 310.601471,448.864319 313.988281,442.053864 
	C314.571777,440.880432 314.837585,439.285553 316.467041,439.255646 
	C318.264648,439.222595 318.869080,440.760651 319.472534,442.166656 
	C324.829407,454.648560 331.872437,466.106293 340.365326,476.696442 
	C341.328796,477.897888 343.268402,479.435303 341.586121,480.942810 
	C339.591248,482.730347 338.387512,480.249695 337.164886,479.136475 
	C332.400116,474.798431 328.996735,469.279633 324.322083,463.333069 
	C324.322083,468.330261 324.378540,472.134796 324.308838,475.937042 
	C324.204376,481.634796 323.024078,486.885132 317.858948,490.336395 
	C316.463654,491.268707 316.016113,492.653900 316.141876,494.246643 
	C317.146637,506.971100 324.340424,516.492737 332.431671,526.107544 
	C334.775116,511.081757 345.953857,505.969971 357.869904,501.495148 
	C361.694733,500.058807 365.278839,497.981476 369.619110,495.885437 
	C354.600250,487.058716 344.032562,475.420380 337.174622,460.620789 
	C337.846710,460.038788 338.518799,459.456787 339.190887,458.874817 
	C344.459137,465.017090 348.863251,471.935394 354.041382,478.135162 
	C359.436462,484.594757 367.157776,488.110565 372.699738,494.378815 
	C376.083191,492.825684 379.377869,491.313324 382.718933,489.779633 
	C380.895233,486.318939 376.294128,485.101196 376.301025,480.570190 
	C379.546661,481.022339 379.546661,481.022339 381.649963,482.815582 
	C387.980957,488.213257 388.272705,488.201630 394.275757,482.316467 
	C397.129852,479.518433 399.813293,476.514954 402.876526,473.968414 
	C408.331268,469.433624 414.152374,470.283203 418.389709,475.957062 
	C419.083771,476.886414 419.635345,477.925873 420.215454,478.935852 
	C421.110870,480.494781 422.548035,480.743256 424.105103,480.459595 
	C425.862366,480.139496 425.960907,478.647064 425.833984,477.326569 
	C424.990112,468.546997 430.594666,464.804779 437.606171,462.215546 
	C447.044403,458.730164 456.883575,456.906952 466.848694,456.066376 
	C470.722595,455.739563 472.362030,454.114288 473.431702,450.683563 
	C475.570374,443.824127 476.962097,436.822540 478.342651,428.916016 
M306.769440,599.131042 
	C303.161835,606.635132 299.731781,614.232300 295.868225,621.602173 
	C294.065857,625.040222 294.360870,627.723511 296.482056,630.799316 
	C302.035553,638.851929 309.128632,645.349121 316.576111,651.554749 
	C326.407532,659.746704 337.168457,666.069458 350.161804,669.082031 
	C355.252808,654.302124 360.269928,639.736816 365.298187,625.139099 
	C363.962860,624.035217 362.586914,624.513489 361.316895,624.372681 
	C359.656647,624.188599 357.033356,625.338013 356.842529,622.666504 
	C356.642517,619.866760 359.447723,620.057251 361.294739,619.908203 
	C366.440399,619.493042 370.842712,617.346375 375.217712,614.802063 
	C383.507935,609.980957 389.132660,601.881470 397.394897,597.039551 
	C398.309509,596.503540 399.223633,595.297729 399.393188,594.278687 
	C400.021271,590.503662 402.683441,588.705322 405.643463,587.004272 
	C409.131134,585.000061 412.270874,582.516418 414.910034,579.466797 
	C417.276001,576.732971 418.580078,573.640747 417.685333,569.053833 
	C411.392181,570.696045 405.134064,570.495850 398.881409,570.342957 
	C396.929108,570.295166 394.291077,570.470398 394.475006,567.634338 
	C394.639008,565.106018 397.182404,565.624451 398.899414,565.695007 
	C405.456085,565.964172 411.885193,565.180115 418.118317,563.232849 
	C422.835571,561.759216 424.424805,558.428650 423.493713,553.424622 
	C422.673767,549.018127 419.846466,547.841919 415.832672,548.282166 
	C413.850159,548.499634 411.861969,548.682800 409.871796,548.810547 
	C403.580383,549.214478 397.301239,550.083801 390.979767,549.519775 
	C389.100922,549.352112 386.964539,548.812378 387.140442,546.476562 
	C387.317810,544.120850 389.563324,543.994385 391.409119,544.052979 
	C398.257355,544.270386 405.045715,543.566406 411.851501,542.989929 
	C417.694153,542.495117 423.561066,542.261658 427.962250,547.244812 
	C432.897308,540.632446 430.959503,531.495789 424.308441,527.606201 
	C424.308441,529.292114 424.335510,531.109558 424.300476,532.925781 
	C424.268372,534.589661 424.392120,536.683350 422.191956,536.819214 
	C419.810730,536.966248 419.939362,534.809265 419.944214,533.175842 
	C419.952484,530.406250 419.395721,527.584290 420.827087,525.080994 
	C418.210083,522.733704 415.254028,522.893677 412.505127,523.145691 
	C404.556335,523.874390 396.621552,524.796875 388.706146,525.833252 
	C384.127502,526.432739 379.748199,525.932861 375.459015,524.363831 
	C374.349640,523.957947 373.240692,523.343872 373.339386,521.926819 
	C373.438568,520.503235 374.637207,519.732727 375.771118,519.937317 
	C382.997223,521.241211 388.770111,517.418823 394.306580,514.086914 
	C402.066650,509.416840 409.579437,509.466431 417.677307,512.446167 
	C419.696259,513.189026 422.064972,515.336487 424.175446,513.410645 
	C426.649292,511.153259 425.975861,507.835693 425.509796,504.895508 
	C425.076721,502.163422 423.464233,499.992920 421.237610,498.354797 
	C412.051117,491.596130 402.411377,488.382233 390.877411,492.532532 
	C377.505249,497.344269 365.222687,504.494965 352.053955,509.676910 
	C345.368347,512.307739 341.141541,516.876770 339.139709,523.836365 
	C336.836395,531.843933 334.372131,539.979858 329.794556,546.926147 
	C319.292908,562.861816 313.784363,580.883972 306.769440,599.131042 
M438.790741,526.938171 
	C436.385071,526.501465 433.979431,526.064697 430.216980,525.381653 
	C434.799133,528.868225 438.918304,530.153687 442.913879,531.565125 
	C447.452728,533.168457 451.694061,535.398743 454.127777,539.490723 
	C457.792328,545.652100 463.617523,547.067810 469.828217,547.539673 
	C475.459930,547.967590 481.215027,548.189331 486.795898,547.512939 
	C493.916748,546.650024 501.755585,546.765137 506.524445,539.770569 
	C515.232971,526.997925 522.190430,513.451965 524.474609,497.912964 
	C525.500549,490.933624 526.642273,483.957581 525.464172,476.818054 
	C494.358276,487.338318 463.514282,488.177460 432.363312,480.162628 
	C432.047089,487.334778 431.773407,487.602448 424.441315,486.125366 
	C420.968536,485.425781 417.673767,485.063263 414.739136,487.623505 
	C415.672821,489.740265 417.153137,489.271729 418.657532,489.147339 
	C427.445709,488.420746 432.807159,492.263794 435.351501,500.658997 
	C437.522217,507.821350 439.613281,515.023438 442.874634,521.809143 
	C444.501282,525.193604 443.947968,527.375916 438.790741,526.938171 
M466.080017,570.565857 
	C468.227020,566.773315 469.565033,562.688660 470.865967,558.536377 
	C472.179413,554.343994 470.857452,552.629578 466.714661,552.396301 
	C459.204102,551.973572 453.495575,548.558899 449.299561,542.258789 
	C446.345245,537.822998 441.645996,536.227112 436.173737,535.178528 
	C436.378632,542.407166 435.566437,548.901306 429.531342,553.389465 
	C429.011017,553.776367 428.971924,554.880371 428.812744,555.672119 
	C427.179230,563.794617 422.167023,570.840942 421.333160,579.246582 
	C421.217621,580.411560 420.043884,581.554749 419.174103,582.544739 
	C417.238953,584.747253 415.186066,586.846252 413.168335,589.001221 
	C433.325378,596.633972 454.422272,591.030334 466.080017,570.565857 
M395.236359,369.154419 
	C395.682587,373.335663 392.767395,372.222137 390.709106,371.819946 
	C382.373474,370.191376 374.463104,371.279968 367.054443,375.383911 
	C362.875397,377.698853 358.920349,380.440186 353.935028,380.706665 
	C355.828308,388.597168 360.050446,392.643829 367.539856,393.573029 
	C372.163452,394.146667 376.864197,394.180054 381.476990,393.448151 
	C399.293121,390.621277 405.945770,383.402039 405.736511,367.804443 
	C405.663300,362.347809 403.287384,358.895325 398.190674,357.457489 
	C383.583038,353.336548 369.606750,355.415283 356.128143,362.015747 
	C351.412689,364.324921 350.703949,368.279144 351.293091,372.934021 
	C351.669067,375.905029 353.023743,376.799530 356.034973,376.273010 
	C360.876770,375.426453 363.518433,371.482513 367.115356,368.931335 
	C376.480133,362.289215 385.083374,362.046997 395.236359,369.154419 
M475.395782,372.432037 
	C472.261566,364.209412 468.975372,356.035553 467.574402,347.271881 
	C467.270538,345.371124 466.135345,344.200134 464.155762,344.405457 
	C454.550690,345.401764 444.975250,346.561615 436.672302,352.171692 
	C432.784760,354.798401 431.255890,358.394440 432.588898,362.957153 
	C434.808655,370.555084 437.100342,378.774139 445.985443,380.614655 
	C456.649780,382.823730 467.175873,381.942017 475.395782,372.432037 
M493.227020,460.364136 
	C481.728790,460.030212 470.270203,460.546265 458.905975,462.352142 
	C450.853210,463.631836 442.809174,465.095947 435.515381,469.040253 
	C434.139923,469.784058 432.119171,470.584778 432.975555,472.694519 
	C433.765198,474.639801 435.694733,474.993225 437.647491,474.610260 
	C438.452698,474.452393 439.203003,474.032654 439.993835,473.780884 
	C465.773987,465.574646 491.832886,464.088196 518.180298,470.715668 
	C520.699768,471.349426 523.137451,471.766174 524.048767,468.987823 
	C525.062195,465.898438 521.889404,465.716675 520.091064,465.026001 
	C511.761841,461.827087 502.934113,461.240662 493.227020,460.364136 
M475.512756,346.371704 
	C474.629333,346.166931 473.768860,345.184296 472.675446,346.464539 
	C473.653534,352.649933 475.288147,358.745117 478.363434,364.785889 
	C481.246826,357.592041 480.241913,350.310333 475.512756,346.371704 
M407.547424,476.956604 
	C404.601044,479.025238 402.186829,481.518921 400.655182,484.947296 
	C406.540924,487.148590 409.925079,483.038696 414.223053,480.936218 
	C413.282837,477.601166 411.806915,475.617340 407.547424,476.956604 
M435.357849,518.855408 
	C434.632385,515.337952 433.373840,512.024170 431.688019,508.512573 
	C430.669708,511.843262 429.778137,514.759399 428.821716,517.887512 
	C431.058258,518.788818 432.754608,520.605286 435.357849,518.855408 
M399.534180,517.420105 
	C399.296173,517.641907 399.032196,517.843201 398.833313,518.095825 
	C398.756592,518.193298 398.791656,518.536865 398.836792,518.549438 
	C401.037720,519.162659 403.124329,519.062927 405.194122,517.800232 
	C403.488708,514.724426 401.722382,516.491882 399.534180,517.420105 
z"/>
<path fill="#000000" opacity="1.000000" stroke="none" 
	d="
M124.717865,727.445557 
	C127.073586,737.548645 129.295883,747.263855 131.829926,758.341980 
	C135.074036,750.193420 135.768845,742.840271 137.608307,735.801514 
	C139.755295,727.585999 141.275742,719.235413 141.809631,710.735229 
	C142.021362,707.364075 143.763809,705.393555 147.176392,705.466919 
	C150.420975,705.536743 151.262634,707.838257 151.212845,710.646973 
	C150.769699,735.644653 153.184479,760.562866 153.299149,785.545410 
	C153.311508,788.237000 153.250168,790.903931 151.919067,793.321228 
	C150.924500,795.127380 149.647934,796.752380 147.261383,796.404907 
	C144.814453,796.048645 144.167557,794.086060 143.911469,792.029480 
	C143.727280,790.550232 143.793533,789.036438 143.792755,787.538086 
	C143.785751,774.103760 143.788666,760.669495 143.401947,747.196472 
	C140.707626,755.074707 138.702515,763.065918 137.323822,771.215820 
	C137.047119,772.851624 136.777039,774.500366 136.323334,776.091675 
	C135.582031,778.691589 134.787903,781.506531 131.270432,781.231812 
	C127.890709,780.967834 127.112892,778.215027 126.770081,775.505493 
	C125.537506,765.763245 124.325089,756.021545 121.677368,746.532593 
	C120.967293,743.987732 120.118843,741.481384 118.494514,739.013611 
	C118.494514,745.356018 118.138321,751.723206 118.576263,758.035217 
	C119.269386,768.025269 119.141632,778.013855 119.261612,788.005066 
	C119.294640,790.756287 119.102608,793.955688 115.586166,794.016541 
	C111.902817,794.080444 110.618591,791.096008 110.620934,787.775635 
	C110.638695,762.619202 110.700546,737.462708 110.766632,712.306274 
	C110.773285,709.773865 111.573730,707.527466 114.352806,707.033142 
	C117.220184,706.523254 118.616356,708.609985 119.399429,710.907288 
	C121.223442,716.258118 122.867485,721.670349 124.717865,727.445557 
z"/>
<path fill="#000000" opacity="1.000000" stroke="none" 
	d="
M382.351349,772.034668 
	C381.837860,778.502991 380.953247,784.411560 377.698853,789.675476 
	C371.958282,798.960815 361.007507,798.836548 355.601074,789.330261 
	C352.600616,784.054504 351.001129,778.236511 350.501709,772.226624 
	C349.245148,757.105835 348.726166,741.955078 351.838165,726.987610 
	C352.787048,722.423828 353.453400,717.024536 359.432220,715.786621 
	C366.074921,714.411133 373.044434,717.549683 376.760223,723.197327 
	C382.476227,731.885193 382.454193,741.841858 382.813385,751.624390 
	C383.057098,758.260986 382.544098,764.925354 382.351349,772.034668 
M358.428345,767.031128 
	C359.462769,772.241821 358.993896,777.702698 360.891022,782.754395 
	C361.859436,785.332886 362.533936,788.670349 366.127380,788.611450 
	C369.537506,788.555481 370.708527,785.521240 371.550262,782.836243 
	C373.447693,776.783630 374.768188,770.518555 374.590576,764.194885 
	C374.291870,753.559448 373.462219,742.937500 372.773804,732.315186 
	C372.583710,729.381958 371.321350,726.828308 369.010834,724.959412 
	C365.704956,722.285522 362.147461,723.032776 360.460815,726.891296 
	C359.679443,728.678894 359.138611,730.732605 359.127533,732.669373 
	C359.063812,743.820496 357.582550,754.937439 358.428345,767.031128 
z"/>
<path fill="#000000" opacity="1.000000" stroke="none" 
	d="
M527.539917,773.347961 
	C526.948547,779.646118 526.028381,785.385437 522.587158,790.372437 
	C516.708923,798.891235 506.075745,798.500366 500.983185,789.480591 
	C496.425964,781.408997 495.543671,772.380493 495.062134,763.403564 
	C494.401337,751.085144 494.622162,738.739990 497.234558,726.616943 
	C498.227203,722.010376 498.978241,716.527039 505.093719,715.746216 
	C511.996246,714.864868 517.960022,716.979675 522.063965,723.000488 
	C526.788025,729.931030 527.471436,738.011108 527.951904,745.953308 
	C528.493896,754.913391 528.839539,763.934448 527.539917,773.347961 
M519.704834,769.167847 
	C520.714844,757.511169 518.640747,745.958008 518.496216,734.336365 
	C518.459106,731.353394 517.595398,728.402527 515.452637,726.074707 
	C511.644318,721.937500 506.802490,722.860413 505.081207,728.199707 
	C504.432861,730.210754 504.262848,732.441345 504.238525,734.575928 
	C504.168488,740.722839 503.602112,746.880005 503.628540,752.983704 
	C503.674408,763.556152 503.388336,774.292053 507.130005,784.501831 
	C507.821594,786.388977 508.526672,788.460327 510.932831,788.609131 
	C513.447571,788.764587 514.826294,786.948425 515.810791,784.959045 
	C518.125916,780.280457 518.953979,775.192688 519.704834,769.167847 
z"/>
<path fill="#000000" opacity="1.000000" stroke="none" 
	d="
M402.187897,778.676514 
	C402.401184,780.253906 402.380371,781.482727 402.812103,782.524048 
	C403.722382,784.719727 404.915253,786.820190 407.775604,786.726868 
	C410.619995,786.634094 411.862427,784.609436 412.413696,782.237366 
	C413.240967,778.677612 414.021301,775.079041 414.421265,771.452820 
	C416.266357,754.724915 416.246735,737.918396 416.284424,721.118835 
	C416.290833,718.272766 415.724976,714.933838 419.926849,714.858398 
	C423.779175,714.789307 425.317413,717.769409 424.960846,720.957092 
	C423.698059,732.246887 424.454620,743.589111 423.700287,754.881165 
	C423.168335,762.843811 423.166748,770.851746 421.393768,778.704590 
	C420.432678,782.961670 419.135345,787.064636 416.847168,790.795105 
	C412.797607,797.397278 404.855164,798.137695 399.516418,792.485291 
	C396.771088,789.578674 395.464752,786.005310 394.768127,782.201721 
	C393.568909,775.654053 392.690948,769.081055 392.693085,762.380615 
	C392.697266,749.228149 392.458008,736.075684 392.333710,722.923035 
	C392.309448,720.356812 392.340942,717.400269 395.566101,717.058289 
	C399.053772,716.688477 399.700500,719.745850 400.230713,722.408020 
	C400.423065,723.373779 400.346619,724.399841 400.338013,725.397827 
	C400.185944,743.039246 400.155548,760.676086 402.187897,778.676514 
z"/>
<path fill="#000000" opacity="1.000000" stroke="none" 
	d="
M170.484131,744.513916 
	C171.611969,736.355652 172.654922,728.622559 173.717850,720.892273 
	C174.153656,717.722778 174.928726,714.937256 179.133865,715.299377 
	C182.872147,715.621277 184.921600,716.810852 185.488281,721.211853 
	C188.306137,743.096436 190.148285,765.108643 193.899155,786.872864 
	C194.123596,788.175171 194.233795,789.512756 194.236160,790.834290 
	C194.240601,793.311768 193.196976,795.082520 190.499878,795.183777 
	C188.150543,795.272095 186.123428,794.479614 185.645752,791.871582 
	C184.928879,787.957581 184.358337,784.015198 183.796982,780.074707 
	C183.027237,774.671204 178.514633,776.675537 175.490738,775.947327 
	C172.159256,775.145081 172.336563,778.074158 171.867874,780.035278 
	C171.058762,783.421021 170.565033,786.889526 169.618332,790.232483 
	C168.878464,792.845093 167.669220,795.513428 164.110016,794.569885 
	C160.445633,793.598450 160.345703,790.818176 161.175674,787.796570 
	C165.052475,773.682861 167.650894,759.294678 170.484131,744.513916 
M179.831177,740.656311 
	C179.749725,740.169861 179.668289,739.683411 179.586838,739.196960 
	C177.247650,747.222900 175.523682,755.371521 174.288986,763.593628 
	C173.326279,770.004456 174.622437,770.877319 181.710846,769.353088 
	C182.588150,759.956177 181.459427,750.617371 179.831177,740.656311 
z"/>
<path fill="#000000" opacity="1.000000" stroke="none" 
	d="
M221.548508,768.445801 
	C223.434631,775.609375 225.500946,782.266663 228.362183,788.667419 
	C229.472549,791.151489 230.507385,794.187622 227.295334,795.640991 
	C223.862488,797.194397 222.177719,794.329041 220.941559,791.689209 
	C217.167969,783.630615 215.934692,774.832520 213.692886,766.327209 
	C212.995178,763.680115 212.182831,761.063293 211.076447,758.510437 
	C209.821533,767.697632 210.364883,776.756409 211.794479,785.790405 
	C212.027588,787.263550 212.238480,788.752075 212.289673,790.239319 
	C212.376373,792.757202 211.886734,795.120789 208.733688,795.161438 
	C205.802017,795.199341 204.765076,793.218201 204.683273,790.541443 
	C204.520767,785.223022 204.305206,779.906189 204.157303,774.587402 
	C203.685760,757.628906 203.163773,740.671326 202.811386,723.710266 
	C202.668625,716.839233 204.738480,715.107666 211.505402,715.745667 
	C219.136734,716.465149 223.347031,720.171204 224.645020,727.741150 
	C225.642593,733.559021 226.015106,739.642700 222.618179,744.707458 
	C218.716446,750.524841 218.493744,756.324951 220.410233,762.654785 
	C220.937210,764.395203 221.112350,766.242188 221.548508,768.445801 
M216.532074,735.911926 
	C216.593323,731.181824 217.636658,726.125305 211.909027,721.923828 
	C210.441895,730.643677 211.452957,738.093140 211.264221,746.640320 
	C215.158661,743.275574 215.463638,739.865295 216.532074,735.911926 
z"/>
<path fill="#000000" opacity="1.000000" stroke="none" 
	d="
M477.937134,715.365479 
	C470.876251,713.877258 466.463776,716.196533 465.752014,723.032898 
	C463.926270,740.568054 462.341278,758.191711 466.415314,775.673950 
	C466.936066,777.908691 467.835815,780.143494 468.994049,782.124390 
	C472.130768,787.489075 476.223541,788.364563 481.591217,785.084229 
	C482.159088,784.737183 482.695099,784.338318 483.260651,783.987244 
	C485.108032,782.840088 486.965912,782.380005 488.699585,784.155029 
	C490.569153,786.069397 490.041748,788.042725 488.793915,790.056580 
	C484.443787,797.076965 473.009277,798.667297 466.234680,793.096802 
	C462.956451,790.401245 460.654144,787.086487 459.486450,782.864441 
	C455.068237,766.889832 455.327423,750.614929 456.061798,734.295837 
	C456.226227,730.641479 456.556671,726.993896 456.688416,723.338806 
	C457.078339,712.522034 467.828461,703.945251 478.460205,706.045105 
	C479.433441,706.237305 480.444366,706.477478 481.308960,706.937561 
	C484.146057,708.447021 486.557129,710.689575 485.226349,714.048401 
	C483.954742,717.258057 480.950562,716.482117 477.937134,715.365479 
z"/>
<path fill="#000000" opacity="1.000000" stroke="none" 
	d="
M598.907532,761.057129 
	C599.414490,749.272705 600.137817,738.018799 599.031128,726.669128 
	C598.199219,718.138672 602.070557,715.164124 610.571899,716.512146 
	C613.022949,716.900757 615.488464,717.443787 617.818726,718.276062 
	C619.943848,719.035095 621.811096,720.445435 620.759827,723.164490 
	C619.843994,725.533264 618.246704,726.881958 615.352234,726.434875 
	C608.283630,725.343018 608.269897,725.427185 608.114990,732.649597 
	C608.079285,734.314636 608.164490,735.991394 607.996643,737.642700 
	C607.497314,742.552979 607.627502,746.700256 614.498108,746.272278 
	C616.739380,746.132629 618.697021,747.778015 618.463745,750.465393 
	C618.245117,752.983459 616.502625,754.566101 614.052368,754.257629 
	C608.417542,753.548218 607.917969,756.614014 607.980164,761.101562 
	C608.074585,767.916321 607.515808,774.737671 607.360046,781.559143 
	C607.224731,787.482178 607.791931,787.948059 613.528259,787.494202 
	C614.851440,787.389465 616.189697,787.202454 617.502441,787.300659 
	C619.674194,787.462952 621.447754,788.479248 621.795593,790.777405 
	C622.142944,793.071838 620.793701,794.804688 618.724976,795.332764 
	C613.491028,796.668823 608.156250,796.552246 602.964172,795.102783 
	C600.642334,794.454651 599.797913,792.359619 599.732300,789.981995 
	C599.470764,780.502930 599.180969,771.024719 598.907532,761.057129 
z"/>
<path fill="#000000" opacity="1.000000" stroke="none" 
	d="
M632.804138,760.004883 
	C632.615479,748.554382 634.531860,737.636475 632.983643,726.636719 
	C632.402832,722.510132 632.858215,718.121155 637.979797,716.406982 
	C641.616211,715.189758 651.655640,717.362976 653.590454,719.794312 
	C655.496277,722.189209 654.076782,725.856018 650.944336,726.200867 
	C649.519470,726.357727 647.993652,725.902710 646.554077,725.557007 
	C643.638306,724.856812 642.106323,725.725647 642.030212,728.922058 
	C641.959106,731.910706 641.760010,734.908264 641.398315,737.875244 
	C640.784851,742.908325 641.111389,746.839905 647.938965,746.227234 
	C650.252319,746.019653 652.130737,747.745789 651.827393,750.404785 
	C651.552490,752.814514 649.963135,754.486816 647.410950,754.217224 
	C642.757874,753.725586 641.854736,756.076843 641.868958,760.122803 
	C641.895935,767.768188 641.556824,775.417480 641.247375,783.060181 
	C641.106262,786.544373 642.489136,788.055847 645.992676,787.440918 
	C646.483582,787.354736 646.982056,787.277954 647.478882,787.264282 
	C650.840210,787.171997 654.978088,786.758545 655.038879,791.407715 
	C655.097717,795.902649 650.943115,795.958130 647.594177,796.049316 
	C634.195251,796.414185 633.147278,795.374451 633.002319,781.963501 
	C632.924988,774.810242 632.864685,767.656860 632.804138,760.004883 
z"/>
<path fill="#000000" opacity="1.000000" stroke="none" 
	d="
M283.257843,717.431946 
	C286.122681,718.661682 289.651550,719.097168 288.459045,723.115967 
	C287.333893,726.908020 284.397827,727.051025 281.208771,725.832092 
	C277.459930,724.399170 275.843079,726.125061 275.662781,729.653870 
	C275.442505,733.965881 275.445099,738.288940 275.316559,742.606140 
	C275.235443,745.332153 276.893127,745.896912 279.171051,745.971069 
	C282.209259,746.069946 285.689240,746.056519 285.531677,750.380798 
	C285.389771,754.277527 282.280029,754.471680 279.294861,754.294922 
	C276.159332,754.109375 275.300873,755.767700 275.317871,758.592163 
	C275.366882,766.741028 275.392181,774.893311 275.200012,783.038879 
	C275.107788,786.948792 276.941193,788.025146 280.424133,787.592529 
	C282.392487,787.347961 284.380432,786.940430 286.351288,787.649109 
	C288.030304,788.252869 289.286652,789.220154 289.398346,791.165222 
	C289.507782,793.071228 288.569489,794.522095 286.876343,795.061157 
	C281.343689,796.822693 275.698364,796.767761 270.252747,794.875488 
	C267.714417,793.993408 267.725128,791.284607 267.602753,788.892883 
	C266.838074,773.945923 266.220612,759.011780 267.559998,744.050842 
	C267.943024,739.772827 267.811890,735.379578 267.327454,731.105957 
	C265.763000,717.304199 269.281219,714.090576 283.257843,717.431946 
z"/>
<path fill="#000000" opacity="1.000000" stroke="none" 
	d="
M577.381653,738.327148 
	C577.336365,740.453735 577.387817,742.121948 577.270996,743.778259 
	C577.025818,747.254089 577.173462,750.118042 582.017517,749.849304 
	C584.187195,749.728882 585.759949,751.407043 585.583130,753.794312 
	C585.414612,756.069153 583.932190,757.714661 581.646240,757.426636 
	C576.803284,756.816406 576.071533,759.361755 576.228455,763.314941 
	C576.511719,770.452332 576.048828,777.601929 576.776184,784.746460 
	C577.021667,787.157166 576.546326,789.744324 575.895813,792.112244 
	C575.328247,794.178162 573.564575,795.395874 571.265625,795.031006 
	C569.226196,794.707336 568.042358,793.289795 567.856445,791.272705 
	C567.689392,789.459595 567.680420,787.612854 567.805420,785.794983 
	C569.187500,765.700500 568.663940,745.573242 568.871094,725.459229 
	C568.955994,717.211914 570.607422,715.466736 578.901489,715.757385 
	C581.876587,715.861511 584.875000,716.250061 587.789185,716.860229 
	C590.401123,717.407104 592.669617,718.892334 591.892944,722.019836 
	C591.212280,724.760559 589.099121,726.046997 586.158813,725.527527 
	C585.176880,725.354065 584.170105,725.232483 583.231567,724.917725 
	C579.459412,723.652405 578.027832,725.102112 578.048950,728.921082 
	C578.065491,731.900513 577.634399,734.882446 577.381653,738.327148 
z"/>
<path fill="#000000" opacity="1.000000" stroke="none" 
	d="
M250.317108,724.442017 
	C248.353928,725.683472 248.243973,727.379395 248.324249,729.048401 
	C249.154343,746.306824 250.021820,763.563416 250.879349,780.820557 
	C251.011826,783.486206 251.539993,785.627808 254.936188,785.950989 
	C256.836212,786.131775 258.194397,787.632385 258.190552,789.782837 
	C258.186279,792.167847 256.596252,793.665222 254.562561,793.922546 
	C249.458649,794.568237 244.282303,794.834900 239.204178,793.685486 
	C237.234634,793.239746 235.272629,792.160278 235.172913,789.817566 
	C235.067566,787.341553 236.972519,786.306396 239.093307,786.146301 
	C242.686707,785.875061 242.893356,783.515015 242.653580,780.852844 
	C241.101501,763.619690 240.587708,746.351929 240.859818,729.056641 
	C240.891617,727.036072 240.403687,725.554504 238.063568,725.071045 
	C236.071930,724.659729 234.874985,723.208557 235.029236,721.095093 
	C235.185104,718.959351 236.758408,717.975464 238.635986,717.476135 
	C242.172714,716.535461 245.753098,715.823425 249.427643,715.707458 
	C252.251404,715.618347 254.978638,715.921875 255.580338,719.342407 
	C256.239471,723.089355 253.266312,723.581665 250.317108,724.442017 
z"/>
<path fill="#000000" opacity="1.000000" stroke="none" 
	d="
M321.783234,739.892151 
	C321.548004,730.258240 321.326752,721.110413 321.087982,711.963013 
	C321.012665,709.077698 321.385803,706.366333 325.033173,706.267822 
	C328.486572,706.174561 329.457031,708.531738 329.543182,711.568237 
	C329.646881,715.223877 329.956299,718.874207 330.038452,722.529907 
	C330.475952,741.992737 330.946930,761.455627 331.210693,780.921082 
	C331.259918,784.552246 332.363953,786.220215 336.100281,785.829468 
	C337.241119,785.710144 338.449219,785.794434 339.572449,786.036499 
	C342.094421,786.580017 344.048370,788.016479 343.663116,790.803040 
	C343.268555,793.657288 341.201141,795.177307 338.292755,794.778564 
	C335.277496,794.365173 332.411346,794.529846 329.412903,795.147827 
	C325.401184,795.974670 322.457703,793.332092 322.846344,789.178345 
	C324.373260,772.860046 322.449921,756.636658 321.783234,739.892151 
z"/>
<path fill="#000000" opacity="1.000000" stroke="none" 
	d="
M539.620300,736.967041 
	C539.648804,731.650879 539.689209,726.829285 539.698914,722.007629 
	C539.706726,718.137939 541.861511,716.177490 545.476196,715.810913 
	C549.634949,715.389160 553.800049,715.636475 557.835815,716.804993 
	C560.340027,717.529968 562.732544,718.724060 562.125610,721.931396 
	C561.498779,725.243591 559.071228,725.851562 556.042664,725.416260 
	C548.390747,724.316589 548.453064,724.367188 548.230896,732.270447 
	C548.114380,736.414246 547.736023,740.554016 547.372559,744.686523 
	C547.103394,747.746277 547.521057,749.949097 551.440552,749.745605 
	C553.968323,749.614319 556.239014,750.553284 556.144287,753.613647 
	C556.053650,756.539612 553.988098,757.584229 551.333191,757.421570 
	C547.062500,757.159973 545.997742,759.308350 546.245117,763.205322 
	C546.697571,770.330444 546.875366,777.475830 547.022095,784.615784 
	C547.066040,786.754944 546.684509,788.912170 546.392761,791.046692 
	C546.036804,793.651245 544.823792,795.537170 541.846375,795.152283 
	C539.079468,794.794739 537.818848,792.813721 537.857605,790.241577 
	C537.900024,787.433472 538.524048,784.636047 538.598511,781.826172 
	C538.990234,767.039307 539.288391,752.250061 539.620300,736.967041 
z"/>
<path fill="#000000" opacity="1.000000" stroke="none" 
	d="
M376.011475,264.729370 
	C386.407410,266.803314 394.996368,270.852997 400.575134,280.013580 
	C397.550140,282.247955 396.392303,280.552155 395.084839,279.316376 
	C377.660095,262.847137 350.140472,266.507446 337.260040,286.769470 
	C331.515656,295.805908 329.655670,306.246155 325.754852,315.939484 
	C322.291656,324.545380 317.221771,331.736694 308.814545,336.115173 
	C306.680695,337.226501 304.364502,338.413940 302.076233,336.604523 
	C301.796631,333.977875 303.735596,333.683350 305.159241,333.024475 
	C312.836151,329.471741 317.949249,323.572327 320.792938,315.722931 
	C322.944489,309.783936 324.779999,303.731201 326.818085,297.750214 
	C333.424530,278.362885 346.043335,266.212341 367.147614,264.223297 
	C370.010498,263.953491 372.792145,264.215637 376.011475,264.729370 
z"/>
<path fill="#000000" opacity="1.000000" stroke="none" 
	d="
M313.885742,276.887390 
	C307.739990,282.966888 304.026215,290.422089 299.286407,297.513123 
	C296.338501,294.906769 297.890228,292.792114 298.845428,290.886108 
	C309.962036,268.703125 327.731201,255.197159 352.129486,250.727295 
	C366.694519,248.058899 380.686432,249.644974 393.235016,258.253479 
	C399.280396,262.400696 403.829285,267.852936 406.161377,274.925690 
	C406.698334,276.554108 407.800354,278.366089 405.823883,279.798126 
	C403.728424,279.937500 403.190430,278.424164 402.585968,277.091003 
	C394.565704,259.401245 379.494904,254.011078 361.693451,254.518143 
	C342.849060,255.054901 326.965149,262.761780 313.885742,276.887390 
z"/>
<path fill="#000000" opacity="1.000000" stroke="none" 
	d="
M497.213989,385.095459 
	C499.978271,397.380829 499.933350,409.254913 497.336212,421.139984 
	C496.364777,425.585602 494.548462,429.685120 492.278137,433.583313 
	C491.406952,435.079132 490.480927,437.517853 488.312103,436.388550 
	C485.922516,435.144257 487.819733,433.167480 488.588623,431.675720 
	C496.069000,417.162842 496.061157,401.924805 493.205170,386.355194 
	C492.779602,384.035126 491.294403,381.686066 492.763855,379.027283 
	C496.698822,379.109436 495.999786,382.626068 497.213989,385.095459 
z"/>
<path fill="#000000" opacity="1.000000" stroke="none" 
	d="
M443.993408,252.835876 
	C453.523773,253.753372 458.057220,256.490143 458.701660,262.677582 
	C447.515320,255.537674 437.107788,254.329330 428.853149,266.207977 
	C424.920044,260.189941 432.583862,253.744202 443.993408,252.835876 
z"/>
<path fill="#000000" opacity="1.000000" stroke="none" 
	d="
M391.026855,320.991760 
	C389.568756,322.792114 387.801178,322.318665 386.212585,322.224854 
	C379.433838,321.824371 372.999969,323.379669 366.634338,325.423950 
	C365.265259,325.863617 363.969635,326.867767 362.450043,326.125671 
	C361.652924,324.213043 363.028748,323.514313 364.161255,323.014740 
	C372.069519,319.526001 380.342743,318.057190 388.977264,318.853912 
	C390.031067,318.951172 390.866425,319.461578 391.026855,320.991760 
z"/>
<path fill="#000000" opacity="1.000000" stroke="none" 
	d="
M422.606934,336.940338 
	C423.077637,341.312073 425.474854,344.979462 425.184296,349.276672 
	C421.344269,348.012848 418.153595,338.895172 420.400635,336.146667 
	C421.063660,335.335632 421.878510,335.900360 422.606934,336.940338 
z"/>
<path fill="#000000" opacity="1.000000" stroke="none" 
	d="
M409.265320,344.023010 
	C408.639313,347.616943 409.048645,351.399200 403.842377,352.923065 
	C404.918457,347.691895 405.842651,343.199158 406.812836,338.482910 
	C409.899200,339.869476 409.061951,341.919769 409.265320,344.023010 
z"/>
<path fill="#000000" opacity="1.000000" stroke="none" 
	d="
M399.871613,453.376038 
	C393.708282,450.621552 388.283630,447.399261 383.465881,443.213257 
	C382.349548,442.243347 380.854950,441.348389 381.184662,439.613983 
	C381.550110,437.691620 383.306580,437.168884 384.940033,436.793701 
	C393.702148,434.781036 402.530548,431.840820 411.424072,432.101501 
	C424.093994,432.472778 435.685120,428.574066 447.625488,425.791870 
	C449.596527,425.332611 451.941742,423.663055 453.681854,425.824097 
	C455.264648,427.789856 453.754456,430.006042 453.100189,431.991913 
	C447.345825,449.457703 438.681427,455.827972 420.334167,456.293549 
	C413.472046,456.467651 406.665985,456.396149 399.871613,453.376038 
M429.609344,439.079681 
	C435.072998,438.077576 440.456421,436.911224 444.549805,432.421906 
	C442.728607,430.956543 441.415161,431.818817 440.309570,432.262573 
	C431.330353,435.866272 422.014862,436.760834 412.418945,436.484985 
	C406.933228,436.327271 400.772949,438.202393 396.417175,440.423096 
	C407.636169,440.911377 418.234467,441.205536 429.609344,439.079681 
z"/>
<path fill="#000000" opacity="1.000000" stroke="none" 
	d="
M350.609497,444.985199 
	C350.083405,440.511017 348.777191,436.314362 352.638214,431.563690 
	C355.175751,438.340149 353.302368,444.397552 355.509460,450.434662 
	C351.349579,449.977875 351.289459,447.462891 350.609497,444.985199 
z"/>
<path fill="#000000" opacity="1.000000" stroke="none" 
	d="
M363.960754,541.644653 
	C366.454041,540.601990 368.656403,539.854370 370.995392,539.992676 
	C371.697266,540.034180 372.542175,540.586731 372.995605,541.162109 
	C373.570007,541.890808 373.207092,542.826599 372.473328,543.308655 
	C369.994629,544.937195 366.775330,544.526062 364.297119,546.502258 
	C362.002838,548.331726 362.087006,552.113464 358.792206,553.054626 
	C356.851471,548.735291 358.084351,545.944031 363.960754,541.644653 
z"/>
<path fill="#000000" opacity="1.000000" stroke="none" 
	d="
M340.571411,637.634521 
	C343.513794,634.506226 345.905029,631.045227 350.413116,631.464661 
	C351.383667,633.447510 350.451874,634.253845 349.486938,634.874634 
	C346.199829,636.989319 343.959869,639.986633 342.017822,643.290466 
	C341.223267,644.642151 340.467468,646.741821 338.404663,645.620911 
	C336.415222,644.539917 337.592621,642.724792 338.294769,641.287476 
	C338.869324,640.111389 339.658752,639.040161 340.571411,637.634521 
z"/>
<path fill="#000000" opacity="1.000000" stroke="none" 
	d="
M385.145264,590.315063 
	C388.732361,589.531555 389.977478,585.891785 393.285675,584.828735 
	C395.162598,587.639893 393.980530,589.780151 391.994324,591.361877 
	C390.346710,592.674011 388.298065,593.547668 386.323120,594.364319 
	C384.511780,595.113403 382.028839,596.120422 381.218719,593.505554 
	C380.430817,590.962341 383.212402,591.079224 385.145264,590.315063 
z"/>
<path fill="#000000" opacity="1.000000" stroke="none" 
	d="
M377.766205,564.637329 
	C379.492218,564.014832 381.135162,563.043884 382.027191,564.892212 
	C382.881927,566.663269 381.292542,567.535156 379.977509,568.296814 
	C378.111145,569.377869 376.236115,570.444092 374.359467,571.507141 
	C373.321991,572.094788 372.150452,572.696045 371.210388,571.582520 
	C370.113281,570.282898 370.785126,568.961548 371.923370,568.143311 
	C373.664978,566.891418 375.580261,565.881104 377.766205,564.637329 
z"/>
<path fill="#000000" opacity="1.000000" stroke="none" 
	d="
M348.990204,521.054871 
	C350.040741,520.205750 350.773987,519.519714 351.627197,519.052734 
	C352.924988,518.342407 354.464691,517.518127 355.535187,519.198547 
	C356.481049,520.683350 355.157043,521.643616 354.109406,522.384338 
	C352.338531,523.636414 350.949341,525.204956 349.665253,526.925537 
	C348.880768,527.976624 347.832977,529.166504 346.425262,528.034302 
	C345.184692,527.036682 345.674866,525.617065 346.387268,524.465271 
	C347.072693,523.357117 347.939514,522.361267 348.990204,521.054871 
z"/>
<path fill="#000000" opacity="1.000000" stroke="none" 
	d="
M403.614075,499.420105 
	C403.055664,497.057617 401.620300,495.169769 402.668121,492.919647 
	C406.391968,494.034149 408.899994,498.806183 407.523346,501.703400 
	C407.133911,502.522888 406.540405,503.178680 405.625641,502.939514 
	C404.072723,502.533569 403.853516,501.142792 403.614075,499.420105 
z"/>
<path fill="#000000" opacity="1.000000" stroke="none" 
	d="
M382.865997,385.207794 
	C378.523926,386.025330 374.553833,387.872498 370.533447,384.899017 
	C377.584991,383.003357 384.391693,380.582062 391.414642,378.758698 
	C390.325317,383.491821 386.320618,383.623505 382.865997,385.207794 
z"/>
<path fill="#000000" opacity="1.000000" stroke="none" 
	d="
M438.044128,365.175293 
	C436.409149,365.730438 435.032288,366.291931 434.159210,364.738403 
	C433.398651,363.385071 434.036133,362.251160 434.971283,361.139221 
	C440.088654,355.054504 448.762024,352.684448 456.291656,355.342163 
	C460.021393,356.658691 463.219910,359.382446 467.451294,359.419739 
	C468.465424,359.428650 469.325409,360.261017 469.253479,361.445953 
	C469.184692,362.579620 468.332336,363.117493 467.319519,363.462799 
	C465.278473,364.158752 463.326904,363.582214 461.464020,362.910889 
	C453.423828,360.013367 445.769287,360.881836 438.044128,365.175293 
z"/>
<path fill="#000000" opacity="1.000000" stroke="none" 
	d="
M440.184998,373.330627 
	C439.489044,371.485901 440.317200,370.567902 441.669464,370.880859 
	C446.744049,372.055206 451.893494,371.379547 456.989838,371.789337 
	C457.421021,371.823975 457.819702,372.262756 459.146027,373.067383 
	C452.222229,376.264130 446.374603,376.149200 440.184998,373.330627 
z"/>
</svg>